
        <svg width="1171" height="400" viewBox="0 0 1171 400" fill="none" xmlns="http://www.w3.org/2000/svg">
<circle cx="1091.5" cy="277.5" r="7.5" fill="url(#paint0_radial_0_1)" fill-opacity="0.65"/>
<circle cx="1139.5" cy="235.5" r="3.5" fill="url(#paint1_radial_0_1)" fill-opacity="0.65"/>
<circle cx="106.5" cy="36.5" r="6.5" fill="url(#paint2_radial_0_1)" fill-opacity="0.65"/>
<circle cx="48.5" cy="396.5" r="3.5" fill="url(#paint3_radial_0_1)" fill-opacity="0.65"/>
<g opacity="0.4" filter="url(#filter0_f_0_1)">
<path d="M1100.22 51.2432C1100.22 45.394 1104.96 40.6522 1110.81 40.6522H1119.54C1125.39 40.6522 1130.13 45.394 1130.13 51.2432V56.8871C1130.13 59.6193 1127.92 61.8343 1125.18 61.8343C1124.5 61.8343 1124.4 65 1123.75 65C1123.06 65 1121.82 61.8343 1121.16 61.8343C1117.58 61.8343 1114.31 61.8343 1110.81 61.8343C1104.96 61.8343 1100.22 57.0925 1100.22 51.2432Z" fill="url(#paint4_linear_0_1)"/>
<path d="M1100.67 51.2432C1100.67 45.6421 1105.21 41.1014 1110.81 41.1014H1119.54C1125.14 41.1014 1129.68 45.6421 1129.68 51.2432V56.8871C1129.68 59.3712 1127.67 61.3851 1125.18 61.3851C1124.9 61.3851 1124.71 61.5501 1124.6 61.689C1124.49 61.8284 1124.41 62.0017 1124.34 62.1659C1124.21 62.4966 1124.11 62.9248 1124.02 63.3114L1124.02 63.3143C1123.92 63.7193 1123.83 64.0825 1123.73 64.3467C1123.71 64.3883 1123.7 64.4241 1123.69 64.4549C1123.63 64.4002 1123.57 64.3275 1123.5 64.2354C1123.3 63.9604 1123.07 63.5859 1122.83 63.1845L1122.81 63.152C1122.58 62.7723 1122.33 62.37 1122.1 62.0613C1121.99 61.9029 1121.86 61.7501 1121.73 61.6329C1121.61 61.5278 1121.41 61.3851 1121.16 61.3851H1121.14H1121.11H1121.09H1121.07H1121.05H1121.03H1121.01H1120.99H1120.97H1120.95H1120.93H1120.91H1120.88H1120.86H1120.84H1120.82H1120.8H1120.78H1120.76H1120.74H1120.72H1120.7H1120.68H1120.66H1120.63H1120.61H1120.59H1120.57H1120.55H1120.53H1120.51H1120.49H1120.47H1120.45H1120.43H1120.41H1120.39H1120.36H1120.34H1120.32H1120.3H1120.28H1120.26H1120.24H1120.22H1120.2H1120.18H1120.16H1120.14H1120.12H1120.1H1120.08H1120.05H1120.03H1120.01H1119.99H1119.97H1119.95H1119.93H1119.91H1119.89H1119.87H1119.85H1119.83H1119.81H1119.79H1119.77H1119.75H1119.73H1119.7H1119.68H1119.66H1119.64H1119.62H1119.6H1119.58H1119.56H1119.54H1119.52H1119.5H1119.48H1119.46H1119.44H1119.42H1119.4H1119.38H1119.36H1119.34H1119.32H1119.29H1119.27H1119.25H1119.23H1119.21H1119.19H1119.17H1119.15H1119.13H1119.11H1119.09H1119.07H1119.05H1119.03H1119.01H1118.99H1118.97H1118.95H1118.93H1118.91H1118.89H1118.87H1118.85H1118.83H1118.81H1118.79H1118.77H1118.74H1118.72H1118.7H1118.68H1118.66H1118.64H1118.62H1118.6H1118.58H1118.56H1118.54H1118.52H1118.5H1118.48H1118.46H1118.44H1118.42H1118.4H1118.38H1118.36H1118.34H1118.32H1118.3H1118.28H1118.26H1118.24H1118.22H1118.2H1118.18H1118.16H1118.14H1118.12H1118.1H1118.08H1118.06H1118.04H1118.02H1118H1117.98H1117.96H1117.94H1117.92H1117.9H1117.88H1117.86H1117.83H1117.81H1117.79H1117.77H1117.75H1117.73H1117.71H1117.69H1117.67H1117.65H1117.63H1117.61H1117.59H1117.57H1117.55H1117.53H1117.51H1117.49H1117.47H1117.45H1117.43H1117.41H1117.39H1117.37H1117.35H1117.33H1117.31H1117.29H1117.27H1117.25H1117.23H1117.21H1117.19H1117.17H1117.15H1117.13H1117.11H1117.09H1117.07H1117.05H1117.03H1117.01H1116.99H1116.97H1116.95H1116.93H1116.91H1116.89H1116.87H1116.85H1116.83H1116.81H1116.79H1116.77H1116.75H1116.73H1116.71H1116.69H1116.67H1116.65H1116.63H1116.61H1116.59H1116.57H1116.55H1116.53H1116.51H1116.49H1116.47H1116.45H1116.43H1116.41H1116.39H1116.37H1116.35H1116.33H1116.31H1116.29H1116.27H1116.25H1116.23H1116.21H1116.19H1116.17H1116.15H1116.13H1116.11H1116.09H1116.07H1116.05H1116.03H1116.01H1115.99H1115.97H1115.95H1115.93H1115.91H1115.89H1115.87H1115.85H1115.83H1115.81H1115.79H1115.77H1115.75H1115.73H1115.71H1115.69H1115.67H1115.65H1115.63H1115.61H1115.59H1115.57H1115.55H1115.53H1115.51H1115.49H1115.47H1115.45H1115.43H1115.41H1115.39H1115.37H1115.35H1115.33H1115.31H1115.29H1115.27H1115.25H1115.23H1115.21H1115.19H1115.17H1115.15H1115.13H1115.11H1115.09H1115.07H1115.06H1115.04H1115.02H1115H1114.98H1114.96H1114.94H1114.92H1114.9H1114.88H1114.86H1114.84H1114.82H1114.8H1114.78H1114.76H1114.74H1114.72H1114.7H1114.68H1114.66H1114.64H1114.62H1114.6H1114.58H1114.56H1114.54H1114.52H1114.5H1114.48H1114.46H1114.44H1114.42H1114.4H1114.38H1114.36H1114.34H1114.32H1114.3H1114.28H1114.26H1114.24H1114.22H1114.2H1114.18H1114.16H1114.14H1114.12H1114.1H1114.08H1114.06H1114.04H1114.02H1114H1113.98H1113.96H1113.94H1113.92H1113.9H1113.88H1113.86H1113.84H1113.82H1113.8H1113.78H1113.76H1113.74H1113.72H1113.7H1113.68H1113.66H1113.64H1113.62H1113.6H1113.58H1113.56H1113.54H1113.52H1113.5H1113.48H1113.46H1113.44H1113.42H1113.4H1113.38H1113.36H1113.34H1113.32H1113.3H1113.28H1113.26H1113.24H1113.22H1113.2H1113.18H1113.16H1113.14H1113.12H1113.1H1113.08H1113.06H1113.04H1113.02H1113H1112.98H1112.96H1112.94H1112.92H1112.9H1112.88H1112.86H1112.84H1112.82H1112.8H1112.78H1112.76H1112.74H1112.72H1112.7H1112.68H1112.66H1112.64H1112.62H1112.59H1112.57H1112.55H1112.53H1112.51H1112.49H1112.47H1112.45H1112.43H1112.41H1112.39H1112.37H1112.35H1112.33H1112.31H1112.29H1112.27H1112.25H1112.23H1112.21H1112.19H1112.17H1112.15H1112.13H1112.11H1112.09H1112.07H1112.05H1112.03H1112.01H1111.99H1111.97H1111.95H1111.93H1111.91H1111.89H1111.87H1111.85H1111.83H1111.81H1111.79H1111.77H1111.75H1111.73H1111.71H1111.69H1111.67H1111.65H1111.62H1111.6H1111.58H1111.56H1111.54H1111.52H1111.5H1111.48H1111.46H1111.44H1111.42H1111.4H1111.38H1111.36H1111.34H1111.32H1111.3H1111.28H1111.26H1111.24H1111.22H1111.2H1111.18H1111.16H1111.14H1111.12H1111.1H1111.07H1111.05H1111.03H1111.01H1110.99H1110.97H1110.95H1110.93H1110.91H1110.89H1110.87H1110.85H1110.83H1110.81C1105.21 61.3851 1100.67 56.8444 1100.67 51.2432ZM1123.6 64.5996C1123.6 64.5995 1123.6 64.5992 1123.6 64.5986C1123.6 64.5993 1123.6 64.5996 1123.6 64.5996ZM1123.81 64.5614C1123.81 64.5618 1123.81 64.5621 1123.81 64.5621L1123.81 64.5614Z" stroke="#979797" stroke-width="0.898396"/>
</g>
<path d="M1098.83 47.2814C1098.83 40.9308 1103.97 35.7826 1110.32 35.7826H1120.02C1126.37 35.7826 1131.52 40.9308 1131.52 47.2814V53.3729C1131.52 56.3593 1129.1 58.7802 1126.11 58.7802C1125.36 58.7802 1125.26 62.2174 1124.54 62.2174C1123.8 62.2174 1122.43 58.7802 1121.71 58.7802C1117.77 58.7802 1114.18 58.7802 1110.33 58.7802C1103.97 58.7802 1098.83 53.632 1098.83 47.2814Z" fill="url(#paint5_linear_0_1)"/>
<g filter="url(#filter1_f_0_1)">
<rect x="1098.83" y="35.7826" width="19.4783" height="15.3043" rx="7.65217" fill="#5F45BF"/>
</g>
<g filter="url(#filter2_bi_0_1)">
<path d="M1116.22 33.0378C1116.22 24.1804 1109.04 17 1100.18 17H1087.04C1078.18 17 1071 24.1804 1071 33.0378V41.5974C1071 45.7275 1074.35 49.0756 1078.48 49.0756C1079.52 49.0756 1079.66 53.8696 1080.65 53.8696C1081.69 53.8696 1083.57 49.0756 1084.57 49.0756C1089.97 49.0756 1094.9 49.0756 1100.18 49.0756C1109.04 49.0756 1116.22 41.8953 1116.22 33.0378Z" fill="url(#paint6_linear_0_1)" fill-opacity="0.3"/>
</g>
<circle cx="1087.7" cy="33.6956" r="2.08696" fill="white"/>
<circle cx="1093.96" cy="33.6956" r="2.08696" fill="white"/>
<circle cx="1100.22" cy="33.6956" r="2.08696" fill="white"/>
<path d="M947.054 180.867C947.054 175.549 951.365 171.239 956.682 171.239V171.239V185.174H947.054V180.867Z" fill="#08041F" stroke="#08041F" stroke-width="0.3948"/>
<rect x="947.054" y="185.174" width="9.62815" height="9.34183" fill="#08041F" stroke="#08041F" stroke-width="0.3948"/>
<path fill-rule="evenodd" clip-rule="evenodd" d="M947.229 200.659C947.114 200.065 947.054 199.451 947.054 198.823V194.516H956.682V208.452C954.351 208.452 952.213 207.623 950.547 206.244C948.885 207.351 946.22 208.404 943 207.818C943.887 207.438 947.307 205.158 947.181 200.597C947.196 200.618 947.212 200.639 947.229 200.659Z" fill="#08041F"/>
<path d="M947.229 200.659L947.077 200.785L947.423 200.622L947.229 200.659ZM947.054 194.516V194.319H946.857V194.516H947.054ZM956.682 194.516H956.88V194.319H956.682V194.516ZM956.682 208.452V208.649H956.88V208.452H956.682ZM950.547 206.244L950.673 206.092L950.559 205.998L950.437 206.08L950.547 206.244ZM943 207.818L942.922 207.637L942.319 207.895L942.965 208.012L943 207.818ZM947.181 200.597L947.34 200.481L946.966 199.966L946.983 200.603L947.181 200.597ZM946.857 198.823C946.857 199.464 946.918 200.09 947.035 200.696L947.423 200.622C947.31 200.04 947.251 199.439 947.251 198.823H946.857ZM946.857 194.516V198.823H947.251V194.516H946.857ZM956.682 194.319H947.054V194.714H956.682V194.319ZM956.88 208.452V194.516H956.485V208.452H956.88ZM950.421 206.396C952.121 207.803 954.303 208.649 956.682 208.649V208.254C954.398 208.254 952.304 207.443 950.673 206.092L950.421 206.396ZM942.965 208.012C946.247 208.609 948.964 207.536 950.656 206.408L950.437 206.08C948.806 207.166 946.192 208.198 943.035 207.624L942.965 208.012ZM946.983 200.603C947.045 202.828 946.242 204.494 945.316 205.652C944.386 206.815 943.335 207.46 942.922 207.637L943.078 208C943.551 207.797 944.654 207.111 945.625 205.899C946.599 204.681 947.443 202.926 947.378 200.592L946.983 200.603ZM947.381 200.533C947.367 200.516 947.353 200.499 947.34 200.481L947.021 200.713C947.039 200.738 947.057 200.761 947.077 200.785L947.381 200.533Z" fill="#08041F"/>
<rect x="956.682" y="171.239" width="38.2956" height="37.2128" fill="#08041F"/>
<rect x="956.682" y="171.239" width="38.2956" height="37.2128" stroke="#08041F" stroke-width="0.3948"/>
<path d="M957.81 194.345V185.066H961.261C961.915 185.066 962.461 185.164 962.9 185.361C963.347 185.558 963.683 185.867 963.907 186.288C964.131 186.7 964.243 187.232 964.243 187.886C964.243 188.566 964.104 189.139 963.826 189.605C963.558 190.07 963.132 190.397 962.55 190.585L964.323 194.345H963.128L961.49 190.813H958.884V194.345H957.81ZM958.884 189.873H961.275C961.731 189.873 962.094 189.788 962.362 189.618C962.64 189.448 962.837 189.215 962.953 188.92C963.07 188.616 963.128 188.275 963.128 187.899C963.128 187.264 962.976 186.789 962.671 186.476C962.367 186.163 961.897 186.006 961.261 186.006H958.884V189.873ZM968.234 194.48C967.562 194.48 967.03 194.35 966.636 194.09C966.251 193.83 965.973 193.445 965.803 192.935C965.633 192.425 965.548 191.789 965.548 191.028C965.548 190.178 965.664 189.497 965.897 188.987C966.13 188.468 966.457 188.092 966.877 187.859C967.298 187.617 967.795 187.497 968.368 187.497C969.263 187.497 969.939 187.747 970.396 188.249C970.852 188.741 971.081 189.538 971.081 190.639L971.027 191.431H966.609C966.618 192.129 966.748 192.658 966.998 193.016C967.249 193.374 967.701 193.553 968.355 193.553C968.605 193.553 968.878 193.548 969.174 193.539C969.478 193.522 969.778 193.504 970.073 193.486C970.369 193.468 970.62 193.45 970.825 193.432L970.852 194.251C970.637 194.287 970.373 194.323 970.06 194.359C969.756 194.394 969.442 194.421 969.12 194.439C968.798 194.466 968.502 194.48 968.234 194.48ZM966.609 190.585H970.033C970.033 189.762 969.899 189.189 969.63 188.866C969.371 188.535 968.95 188.369 968.368 188.369C967.804 188.369 967.37 188.54 967.065 188.88C966.761 189.22 966.609 189.788 966.609 190.585ZM972.57 197.313V187.631H973.604V188.114C973.747 188.025 973.926 187.935 974.141 187.846C974.365 187.747 974.602 187.667 974.852 187.604C975.103 187.532 975.345 187.497 975.578 187.497C976.428 187.497 977.05 187.77 977.444 188.316C977.838 188.853 978.035 189.717 978.035 190.907C978.035 191.785 977.932 192.488 977.726 193.016C977.529 193.535 977.211 193.911 976.773 194.144C976.343 194.368 975.784 194.48 975.094 194.48C974.817 194.48 974.535 194.462 974.248 194.426C973.971 194.39 973.756 194.359 973.604 194.332V197.313H972.57ZM975.04 193.566C975.524 193.566 975.904 193.477 976.182 193.298C976.468 193.119 976.67 192.837 976.786 192.452C976.903 192.058 976.961 191.543 976.961 190.907C976.961 190.003 976.827 189.368 976.558 189.001C976.289 188.625 975.913 188.437 975.43 188.437C975.215 188.437 974.991 188.463 974.758 188.517C974.535 188.571 974.32 188.638 974.114 188.719C973.908 188.79 973.738 188.866 973.604 188.947V193.432C973.747 193.45 973.957 193.477 974.235 193.513C974.512 193.548 974.781 193.566 975.04 193.566ZM982.175 194.48C981.423 194.48 980.837 194.35 980.416 194.09C980.004 193.83 979.714 193.437 979.543 192.908C979.382 192.38 979.302 191.713 979.302 190.907C979.302 190.138 979.391 189.502 979.57 189.001C979.758 188.499 980.063 188.123 980.483 187.873C980.904 187.622 981.468 187.497 982.175 187.497C982.892 187.497 983.46 187.622 983.881 187.873C984.302 188.123 984.602 188.499 984.781 189.001C984.969 189.502 985.063 190.138 985.063 190.907C985.063 191.713 984.978 192.38 984.807 192.908C984.646 193.437 984.355 193.83 983.935 194.09C983.523 194.35 982.936 194.48 982.175 194.48ZM982.175 193.58C982.695 193.58 983.084 193.49 983.344 193.311C983.603 193.123 983.773 192.832 983.854 192.438C983.944 192.044 983.988 191.534 983.988 190.907C983.988 190.29 983.935 189.797 983.827 189.43C983.72 189.063 983.536 188.799 983.277 188.638C983.017 188.477 982.65 188.396 982.175 188.396C981.71 188.396 981.343 188.477 981.074 188.638C980.815 188.799 980.631 189.063 980.524 189.43C980.416 189.797 980.363 190.29 980.363 190.907C980.363 191.534 980.403 192.044 980.483 192.438C980.573 192.832 980.748 193.123 981.007 193.311C981.267 193.49 981.656 193.58 982.175 193.58ZM986.638 194.345V187.631H987.672V188.531C987.842 188.414 988.057 188.289 988.316 188.155C988.576 188.011 988.862 187.877 989.176 187.752C989.489 187.626 989.802 187.537 990.116 187.483V188.544C989.811 188.607 989.503 188.692 989.189 188.799C988.876 188.898 988.585 189.005 988.316 189.121C988.057 189.238 987.842 189.341 987.672 189.43V194.345H986.638ZM993.428 194.493C992.963 194.493 992.591 194.421 992.314 194.278C992.045 194.135 991.853 193.889 991.736 193.539C991.62 193.181 991.562 192.68 991.562 192.035V188.531H990.608V187.631H991.562V185.576H992.596V187.631H994.704V188.531H992.596V191.727C992.596 192.201 992.614 192.573 992.65 192.841C992.694 193.101 992.784 193.284 992.918 193.392C993.052 193.499 993.263 193.553 993.549 193.553C993.639 193.553 993.755 193.548 993.898 193.539C994.042 193.531 994.185 193.522 994.328 193.513C994.48 193.495 994.615 193.481 994.731 193.472L994.798 194.345C994.601 194.372 994.368 194.403 994.1 194.439C993.831 194.475 993.607 194.493 993.428 194.493ZM997.962 194.48C997.756 194.48 997.505 194.466 997.21 194.439C996.923 194.412 996.637 194.381 996.35 194.345C996.064 194.3 995.809 194.26 995.585 194.224L995.639 193.325C995.862 193.351 996.113 193.383 996.391 193.419C996.677 193.454 996.955 193.486 997.223 193.513C997.492 193.531 997.707 193.539 997.868 193.539C998.235 193.539 998.539 193.508 998.781 193.445C999.023 193.374 999.206 193.257 999.331 193.096C999.457 192.935 999.52 192.707 999.52 192.411C999.52 192.188 999.47 192.013 999.372 191.888C999.282 191.762 999.108 191.659 998.848 191.579C998.597 191.498 998.23 191.422 997.747 191.351C997.246 191.27 996.825 191.172 996.485 191.055C996.153 190.93 995.907 190.746 995.746 190.505C995.585 190.263 995.504 189.918 995.504 189.471C995.504 188.969 995.621 188.575 995.853 188.289C996.086 188.002 996.386 187.801 996.753 187.685C997.129 187.559 997.519 187.497 997.921 187.497C998.172 187.497 998.445 187.51 998.741 187.537C999.045 187.564 999.34 187.6 999.627 187.644C999.913 187.68 1000.16 187.716 1000.37 187.752L1000.34 188.651C1000.12 188.616 999.873 188.584 999.587 188.557C999.3 188.522 999.014 188.495 998.727 188.477C998.441 188.45 998.19 188.437 997.975 188.437C997.707 188.437 997.465 188.468 997.25 188.531C997.035 188.584 996.865 188.683 996.74 188.826C996.614 188.969 996.552 189.171 996.552 189.43C996.552 189.627 996.597 189.788 996.686 189.914C996.776 190.03 996.946 190.129 997.196 190.209C997.447 190.29 997.81 190.37 998.284 190.451C998.839 190.54 999.282 190.652 999.614 190.787C999.954 190.921 1000.2 191.109 1000.35 191.351C1000.5 191.592 1000.58 191.933 1000.58 192.371C1000.58 193.159 1000.35 193.71 999.882 194.023C999.417 194.327 998.776 194.48 997.962 194.48Z" fill="white"/>
<path d="M1004.61 180.867C1004.61 175.549 1000.3 171.239 994.978 171.239V171.239V185.174H1004.61V180.867Z" fill="#08041F" stroke="#08041F" stroke-width="0.3948"/>
<rect width="9.62815" height="9.34183" transform="matrix(-1 0 0 1 1004.61 185.174)" fill="#08041F" stroke="#08041F" stroke-width="0.3948"/>
<path d="M1004.61 198.823C1004.61 204.141 1000.3 208.452 994.978 208.452V208.452V194.516H1004.61V198.823Z" fill="#08041F" stroke="#08041F" stroke-width="0.3948"/>
<path d="M166 103.536C166 98.8215 169.822 95 174.536 95V95V107.354H166V103.536Z" fill="white" stroke="white" stroke-width="0.35"/>
<rect x="166" y="107.354" width="8.5356" height="7.89169" fill="white" stroke="white" stroke-width="0.35"/>
<path d="M166 119.064C166 123.778 169.822 127.6 174.536 127.6V127.6V115.246H166V119.064Z" fill="white" stroke="white" stroke-width="0.35"/>
<rect x="174.536" y="95" width="36.3349" height="32.6" fill="white"/>
<rect x="174.536" y="95" width="36.3349" height="32.6" stroke="white" stroke-width="0.35"/>
<path d="M181.286 115.3H175.774V106.966H176.393V114.728H181.286V115.3ZM183.04 112.502C183.147 114.014 184.231 114.895 185.421 114.895C186.362 114.895 187.004 114.478 187.504 113.943L187.909 114.3C187.29 114.967 186.564 115.443 185.397 115.443C183.802 115.443 182.421 114.169 182.421 112.276V112.252C182.421 110.49 183.659 109.086 185.302 109.086C187.004 109.086 188.088 110.467 188.088 112.264V112.288C188.088 112.371 188.088 112.407 188.076 112.502H183.04ZM183.04 111.978H187.457C187.374 110.752 186.671 109.621 185.278 109.621C184.076 109.621 183.147 110.633 183.04 111.978ZM194.469 115.3H193.897V114.288C193.481 114.871 192.731 115.443 191.576 115.443C190.445 115.443 189.231 114.8 189.231 113.538V113.514C189.231 112.252 190.314 111.538 191.885 111.538C192.731 111.538 193.314 111.645 193.897 111.8V111.538C193.897 110.312 193.147 109.681 191.897 109.681C191.159 109.681 190.552 109.883 189.992 110.169L189.778 109.657C190.445 109.347 191.1 109.133 191.933 109.133C193.492 109.133 194.469 109.943 194.469 111.514V115.3ZM193.909 113.026V112.336C193.397 112.205 192.719 112.062 191.85 112.062C190.564 112.062 189.85 112.633 189.85 113.478V113.502C189.85 114.383 190.683 114.895 191.612 114.895C192.85 114.895 193.909 114.133 193.909 113.026ZM202.15 115.3H201.567V113.943C201.043 114.74 200.269 115.443 199.067 115.443C197.602 115.443 196.114 114.264 196.114 112.288V112.264C196.114 110.288 197.602 109.086 199.067 109.086C200.281 109.086 201.067 109.776 201.567 110.538V106.609H202.15V115.3ZM201.602 112.276V112.252C201.602 110.693 200.388 109.645 199.126 109.645C197.805 109.645 196.745 110.609 196.745 112.24V112.264C196.745 113.859 197.852 114.883 199.126 114.883C200.388 114.883 201.602 113.824 201.602 112.276ZM208.366 113.645C208.366 114.728 207.438 115.419 206.271 115.419C205.39 115.419 204.426 115.062 203.783 114.538L204.128 114.074C204.795 114.586 205.533 114.871 206.307 114.871C207.128 114.871 207.771 114.419 207.771 113.717V113.693C207.771 112.978 207.009 112.717 206.164 112.478C205.176 112.193 204.08 111.895 204.08 110.812V110.788C204.08 109.812 204.902 109.109 206.08 109.109C206.807 109.109 207.628 109.371 208.235 109.776L207.926 110.264C207.366 109.895 206.699 109.657 206.057 109.657C205.223 109.657 204.676 110.109 204.676 110.717V110.74C204.676 111.419 205.497 111.669 206.366 111.919C207.342 112.193 208.366 112.55 208.366 113.621V113.645Z" fill="#08041F"/>
<path d="M219.406 103.536C219.406 98.8215 215.585 95 210.87 95V95V107.354H219.406V103.536Z" fill="white" stroke="white" stroke-width="0.35"/>
<rect width="8.5356" height="7.89169" transform="matrix(-1 0 0 1 219.406 107.354)" fill="white" stroke="white" stroke-width="0.35"/>
<path fill-rule="evenodd" clip-rule="evenodd" d="M219.251 120.692C219.353 120.165 219.406 119.621 219.406 119.064V115.246H210.87V127.6C212.937 127.6 214.833 126.865 216.31 125.643C217.783 126.624 220.146 127.557 223 127.038C222.214 126.702 219.181 124.68 219.294 120.637C219.28 120.655 219.266 120.674 219.251 120.692Z" fill="white"/>
<path d="M219.251 120.692L219.386 120.803L219.079 120.659L219.251 120.692ZM219.406 115.246V115.071H219.581V115.246H219.406ZM210.87 115.246H210.695V115.071H210.87V115.246ZM210.87 127.6V127.775H210.695V127.6H210.87ZM216.31 125.643L216.198 125.508L216.298 125.425L216.407 125.497L216.31 125.643ZM223 127.038L223.069 126.878L223.603 127.107L223.031 127.211L223 127.038ZM219.294 120.637L219.152 120.534L219.484 120.077L219.469 120.642L219.294 120.637ZM219.581 119.064C219.581 119.632 219.527 120.187 219.423 120.725L219.079 120.659C219.179 120.143 219.231 119.61 219.231 119.064H219.581ZM219.581 115.246V119.064H219.231V115.246H219.581ZM210.87 115.071H219.406V115.421H210.87V115.071ZM210.695 127.6V115.246H211.045V127.6H210.695ZM216.421 125.778C214.914 127.025 212.98 127.775 210.87 127.775V127.425C212.895 127.425 214.751 126.705 216.198 125.508L216.421 125.778ZM223.031 127.211C220.121 127.74 217.713 126.788 216.213 125.788L216.407 125.497C217.853 126.461 220.17 127.375 222.969 126.866L223.031 127.211ZM219.469 120.642C219.414 122.615 220.125 124.092 220.947 125.118C221.771 126.149 222.703 126.721 223.069 126.878L222.931 127.199C222.511 127.019 221.533 126.412 220.673 125.337C219.81 124.257 219.061 122.702 219.119 120.632L219.469 120.642ZM219.116 120.58C219.129 120.565 219.141 120.55 219.152 120.534L219.435 120.74C219.42 120.761 219.403 120.783 219.386 120.803L219.116 120.58Z" fill="white"/>
<path d="M285 231.536C285 226.822 288.822 223 293.536 223V223V235.354H285V231.536Z" fill="#08041F" stroke="#08041F" stroke-width="0.35"/>
<rect x="285" y="235.354" width="8.5356" height="7.89169" fill="#08041F" stroke="#08041F" stroke-width="0.35"/>
<path d="M285 247.064C285 251.778 288.822 255.6 293.536 255.6V255.6V243.246H285V247.064Z" fill="#08041F" stroke="#08041F" stroke-width="0.35"/>
<rect x="293.536" y="223" width="46.3349" height="32.6" fill="#08041F"/>
<rect x="293.536" y="223" width="46.3349" height="32.6" stroke="#08041F" stroke-width="0.35"/>
<path d="M296.786 243.407C296.548 243.407 296.27 243.391 295.952 243.359C295.635 243.336 295.317 243.304 295 243.264C294.69 243.217 294.417 243.177 294.178 243.145L294.274 242.359C294.504 242.383 294.77 242.411 295.071 242.443C295.381 242.475 295.682 242.502 295.976 242.526C296.278 242.55 296.532 242.562 296.738 242.562C297.317 242.562 297.75 242.431 298.036 242.169C298.321 241.907 298.464 241.498 298.464 240.943C298.464 240.641 298.405 240.403 298.286 240.228C298.175 240.046 297.984 239.903 297.714 239.8C297.452 239.689 297.099 239.59 296.655 239.502C296.083 239.383 295.607 239.244 295.226 239.086C294.853 238.919 294.571 238.685 294.381 238.383C294.198 238.082 294.107 237.673 294.107 237.157C294.107 236.625 294.214 236.197 294.428 235.871C294.651 235.546 294.96 235.308 295.357 235.157C295.762 235.006 296.23 234.931 296.762 234.931C297 234.931 297.27 234.947 297.571 234.978C297.881 235.002 298.182 235.034 298.476 235.074C298.778 235.105 299.036 235.141 299.25 235.181L299.167 235.978C298.936 235.947 298.671 235.919 298.369 235.895C298.067 235.863 297.778 235.836 297.5 235.812C297.222 235.788 297 235.776 296.833 235.776C296.254 235.776 295.813 235.883 295.512 236.097C295.218 236.312 295.071 236.645 295.071 237.097C295.071 237.447 295.135 237.713 295.262 237.895C295.397 238.078 295.611 238.22 295.905 238.324C296.198 238.427 296.583 238.534 297.059 238.645C297.472 238.74 297.825 238.844 298.119 238.955C298.421 239.066 298.667 239.205 298.857 239.371C299.055 239.53 299.198 239.732 299.286 239.978C299.381 240.217 299.429 240.514 299.429 240.871C299.429 241.475 299.321 241.963 299.107 242.336C298.893 242.709 298.587 242.982 298.19 243.157C297.794 243.324 297.325 243.407 296.786 243.407ZM302.738 243.431C302.325 243.431 301.996 243.367 301.75 243.24C301.512 243.113 301.341 242.895 301.238 242.586C301.135 242.268 301.083 241.824 301.083 241.252V238.145H300.238V237.347H301.083V235.526H302V237.347H303.869V238.145H302V240.978C302 241.399 302.016 241.728 302.048 241.967C302.087 242.197 302.167 242.359 302.286 242.455C302.405 242.55 302.591 242.598 302.845 242.598C302.924 242.598 303.028 242.594 303.155 242.586C303.282 242.578 303.409 242.57 303.536 242.562C303.671 242.546 303.79 242.534 303.893 242.526L303.952 243.3C303.778 243.324 303.571 243.352 303.333 243.383C303.095 243.415 302.897 243.431 302.738 243.431ZM306.197 243.419C305.65 243.419 305.233 243.264 304.947 242.955C304.662 242.645 304.519 242.193 304.519 241.598C304.519 241.209 304.586 240.891 304.721 240.645C304.856 240.399 305.058 240.213 305.328 240.086C305.606 239.951 305.947 239.867 306.352 239.836L308.186 239.657V239.145C308.186 238.74 308.094 238.455 307.912 238.288C307.737 238.121 307.475 238.038 307.126 238.038C306.928 238.038 306.689 238.046 306.412 238.062C306.142 238.078 305.872 238.097 305.602 238.121C305.332 238.145 305.094 238.169 304.888 238.193L304.84 237.49C305.031 237.451 305.261 237.411 305.531 237.371C305.801 237.332 306.082 237.3 306.376 237.276C306.67 237.244 306.939 237.228 307.185 237.228C307.638 237.228 308.007 237.3 308.293 237.443C308.578 237.578 308.785 237.788 308.912 238.074C309.047 238.351 309.114 238.709 309.114 239.145V242.157C309.13 242.332 309.197 242.459 309.316 242.538C309.443 242.617 309.602 242.669 309.793 242.693L309.757 243.419C309.582 243.419 309.424 243.407 309.281 243.383C309.138 243.367 309.003 243.34 308.876 243.3C308.773 243.26 308.674 243.213 308.578 243.157C308.491 243.102 308.404 243.034 308.316 242.955C308.166 243.018 307.971 243.086 307.733 243.157C307.503 243.228 307.253 243.288 306.983 243.336C306.721 243.391 306.459 243.419 306.197 243.419ZM306.352 242.645C306.566 242.645 306.789 242.625 307.019 242.586C307.249 242.546 307.467 242.498 307.674 242.443C307.88 242.387 308.051 242.336 308.186 242.288V240.348L306.459 240.514C306.102 240.546 305.844 240.649 305.685 240.824C305.535 240.998 305.459 241.248 305.459 241.574C305.459 241.907 305.535 242.169 305.685 242.359C305.836 242.55 306.058 242.645 306.352 242.645ZM312.768 243.431C312.356 243.431 312.026 243.367 311.78 243.24C311.542 243.113 311.371 242.895 311.268 242.586C311.165 242.268 311.114 241.824 311.114 241.252V238.145H310.268V237.347H311.114V235.526H312.03V237.347H313.899V238.145H312.03V240.978C312.03 241.399 312.046 241.728 312.078 241.967C312.118 242.197 312.197 242.359 312.316 242.455C312.435 242.55 312.622 242.598 312.875 242.598C312.955 242.598 313.058 242.594 313.185 242.586C313.312 242.578 313.439 242.57 313.566 242.562C313.701 242.546 313.82 242.534 313.923 242.526L313.983 243.3C313.808 243.324 313.602 243.352 313.364 243.383C313.125 243.415 312.927 243.431 312.768 243.431ZM314.93 243.3V237.347H315.847V243.3H314.93ZM314.93 236.038V234.966H315.847V236.038H314.93ZM319.355 243.419C319.173 243.419 318.95 243.407 318.689 243.383C318.435 243.359 318.181 243.332 317.927 243.3C317.673 243.26 317.446 243.225 317.248 243.193L317.296 242.395C317.494 242.419 317.716 242.447 317.962 242.478C318.216 242.51 318.462 242.538 318.7 242.562C318.939 242.578 319.129 242.586 319.272 242.586C319.597 242.586 319.867 242.558 320.081 242.502C320.296 242.439 320.458 242.336 320.57 242.193C320.681 242.05 320.736 241.848 320.736 241.586C320.736 241.387 320.693 241.232 320.605 241.121C320.526 241.01 320.371 240.919 320.141 240.848C319.919 240.776 319.593 240.709 319.165 240.645C318.72 240.574 318.347 240.486 318.046 240.383C317.752 240.272 317.534 240.109 317.391 239.895C317.248 239.681 317.177 239.375 317.177 238.978C317.177 238.534 317.28 238.185 317.486 237.931C317.692 237.677 317.958 237.498 318.284 237.395C318.617 237.284 318.962 237.228 319.319 237.228C319.542 237.228 319.784 237.24 320.046 237.264C320.316 237.288 320.577 237.32 320.831 237.359C321.085 237.391 321.304 237.423 321.486 237.455L321.462 238.252C321.272 238.22 321.05 238.193 320.796 238.169C320.542 238.137 320.288 238.113 320.034 238.097C319.78 238.074 319.558 238.062 319.367 238.062C319.129 238.062 318.915 238.09 318.724 238.145C318.534 238.193 318.383 238.28 318.272 238.407C318.161 238.534 318.105 238.713 318.105 238.943C318.105 239.117 318.145 239.26 318.224 239.371C318.304 239.474 318.454 239.562 318.677 239.633C318.899 239.705 319.22 239.776 319.641 239.848C320.133 239.927 320.526 240.026 320.82 240.145C321.121 240.264 321.339 240.431 321.474 240.645C321.609 240.859 321.677 241.161 321.677 241.55C321.677 242.248 321.47 242.736 321.058 243.014C320.645 243.284 320.077 243.419 319.355 243.419ZM324.936 243.431C324.524 243.431 324.194 243.367 323.948 243.24C323.71 243.113 323.54 242.895 323.436 242.586C323.333 242.268 323.282 241.824 323.282 241.252V238.145H322.436V237.347H323.282V235.526H324.198V237.347H326.067V238.145H324.198V240.978C324.198 241.399 324.214 241.728 324.246 241.967C324.286 242.197 324.365 242.359 324.484 242.455C324.603 242.55 324.79 242.598 325.044 242.598C325.123 242.598 325.226 242.594 325.353 242.586C325.48 242.578 325.607 242.57 325.734 242.562C325.869 242.546 325.988 242.534 326.091 242.526L326.151 243.3C325.976 243.324 325.77 243.352 325.532 243.383C325.294 243.415 325.095 243.431 324.936 243.431ZM327.098 243.3V237.347H328.015V243.3H327.098ZM327.098 236.038V234.966H328.015V236.038H327.098ZM331.869 243.419C331.242 243.419 330.75 243.316 330.392 243.109C330.035 242.895 329.781 242.554 329.63 242.086C329.488 241.617 329.416 240.998 329.416 240.228C329.416 239.506 329.496 238.927 329.654 238.49C329.821 238.046 330.087 237.724 330.452 237.526C330.817 237.328 331.293 237.228 331.88 237.228C332.015 237.228 332.178 237.24 332.369 237.264C332.567 237.28 332.769 237.304 332.976 237.336C333.182 237.359 333.361 237.383 333.511 237.407L333.476 238.169C333.341 238.153 333.186 238.137 333.011 238.121C332.837 238.105 332.666 238.094 332.5 238.086C332.333 238.07 332.194 238.062 332.083 238.062C331.63 238.062 331.277 238.133 331.023 238.276C330.777 238.419 330.603 238.649 330.499 238.967C330.404 239.276 330.357 239.697 330.357 240.228C330.357 240.808 330.4 241.272 330.488 241.621C330.575 241.963 330.742 242.209 330.988 242.359C331.234 242.51 331.599 242.586 332.083 242.586C332.194 242.586 332.333 242.582 332.5 242.574C332.674 242.558 332.849 242.542 333.023 242.526C333.206 242.51 333.365 242.498 333.5 242.49L333.523 243.252C333.365 243.276 333.182 243.3 332.976 243.324C332.769 243.348 332.567 243.367 332.369 243.383C332.17 243.407 332.003 243.419 331.869 243.419ZM336.649 243.419C336.466 243.419 336.244 243.407 335.982 243.383C335.728 243.359 335.474 243.332 335.22 243.3C334.966 243.26 334.74 243.225 334.542 243.193L334.589 242.395C334.788 242.419 335.01 242.447 335.256 242.478C335.51 242.51 335.756 242.538 335.994 242.562C336.232 242.578 336.423 242.586 336.566 242.586C336.891 242.586 337.161 242.558 337.375 242.502C337.589 242.439 337.752 242.336 337.863 242.193C337.974 242.05 338.03 241.848 338.03 241.586C338.03 241.387 337.986 241.232 337.899 241.121C337.82 241.01 337.665 240.919 337.435 240.848C337.212 240.776 336.887 240.709 336.458 240.645C336.014 240.574 335.641 240.486 335.339 240.383C335.046 240.272 334.827 240.109 334.685 239.895C334.542 239.681 334.47 239.375 334.47 238.978C334.47 238.534 334.574 238.185 334.78 237.931C334.986 237.677 335.252 237.498 335.578 237.395C335.911 237.284 336.256 237.228 336.613 237.228C336.835 237.228 337.078 237.24 337.339 237.264C337.609 237.288 337.871 237.32 338.125 237.359C338.379 237.391 338.597 237.423 338.78 237.455L338.756 238.252C338.566 238.22 338.343 238.193 338.089 238.169C337.835 238.137 337.581 238.113 337.328 238.097C337.074 238.074 336.851 238.062 336.661 238.062C336.423 238.062 336.208 238.09 336.018 238.145C335.828 238.193 335.677 238.28 335.566 238.407C335.454 238.534 335.399 238.713 335.399 238.943C335.399 239.117 335.439 239.26 335.518 239.371C335.597 239.474 335.748 239.562 335.97 239.633C336.193 239.705 336.514 239.776 336.935 239.848C337.427 239.927 337.82 240.026 338.113 240.145C338.415 240.264 338.633 240.431 338.768 240.645C338.903 240.859 338.97 241.161 338.97 241.55C338.97 242.248 338.764 242.736 338.351 243.014C337.939 243.284 337.371 243.419 336.649 243.419Z" fill="white"/>
<path d="M348.406 231.536C348.406 226.822 344.585 223 339.87 223V223V235.354H348.406V231.536Z" fill="#08041F" stroke="#08041F" stroke-width="0.35"/>
<rect width="8.5356" height="7.89169" transform="matrix(-1 0 0 1 348.406 235.354)" fill="#08041F" stroke="#08041F" stroke-width="0.35"/>
<path fill-rule="evenodd" clip-rule="evenodd" d="M348.251 248.692C348.353 248.165 348.406 247.621 348.406 247.064V243.246H339.87V255.6C341.937 255.6 343.833 254.865 345.31 253.643C346.783 254.624 349.146 255.557 352 255.038C351.214 254.702 348.181 252.68 348.294 248.637C348.28 248.655 348.266 248.674 348.251 248.692Z" fill="#08041F"/>
<path d="M348.251 248.692L348.386 248.803L348.079 248.659L348.251 248.692ZM348.406 243.246V243.071H348.581V243.246H348.406ZM339.87 243.246H339.695V243.071H339.87V243.246ZM339.87 255.6V255.775H339.695V255.6H339.87ZM345.31 253.643L345.198 253.508L345.298 253.425L345.407 253.497L345.31 253.643ZM352 255.038L352.069 254.878L352.603 255.107L352.031 255.211L352 255.038ZM348.294 248.637L348.152 248.534L348.484 248.077L348.469 248.642L348.294 248.637ZM348.581 247.064C348.581 247.632 348.527 248.187 348.423 248.725L348.079 248.659C348.179 248.143 348.231 247.61 348.231 247.064H348.581ZM348.581 243.246V247.064H348.231V243.246H348.581ZM339.87 243.071H348.406V243.421H339.87V243.071ZM339.695 255.6V243.246H340.045V255.6H339.695ZM345.421 253.778C343.914 255.025 341.98 255.775 339.87 255.775V255.425C341.895 255.425 343.751 254.705 345.198 253.508L345.421 253.778ZM352.031 255.211C349.121 255.74 346.713 254.788 345.213 253.788L345.407 253.497C346.853 254.461 349.17 255.375 351.969 254.866L352.031 255.211ZM348.469 248.642C348.414 250.615 349.125 252.092 349.947 253.118C350.771 254.149 351.703 254.721 352.069 254.878L351.931 255.199C351.511 255.019 350.533 254.412 349.673 253.337C348.81 252.257 348.061 250.702 348.119 248.632L348.469 248.642ZM348.116 248.58C348.129 248.565 348.141 248.55 348.152 248.534L348.435 248.74C348.42 248.761 348.403 248.783 348.386 248.803L348.116 248.58Z" fill="#08041F"/>
<g clip-path="url(#clip0_0_1)">
<path fill-rule="evenodd" clip-rule="evenodd" d="M32.8378 116.534C34.0977 112.159 40.3539 112.159 41.6137 116.534C42.016 117.931 43.4644 118.76 44.8864 118.407C49.3394 117.3 52.4675 122.67 49.2744 125.938C48.2547 126.982 48.2547 128.64 49.2744 129.684C52.4675 132.952 49.3394 138.322 44.8864 137.215C43.4644 136.862 42.016 137.691 41.6137 139.088C40.3539 143.463 34.0977 143.463 32.8378 139.088C32.4355 137.691 30.9872 136.862 29.5651 137.215C25.1121 138.322 21.984 132.952 25.1772 129.684C26.1969 128.64 26.1969 126.982 25.1772 125.938C21.984 122.67 25.1121 117.3 29.5651 118.407C30.9872 118.76 32.4355 117.931 32.8378 116.534ZM42.8594 124.737C43.1858 124.349 43.1329 123.772 42.7411 123.448C42.3494 123.125 41.7672 123.177 41.4408 123.565L37.1769 128.636C36.7204 129.179 36.4401 129.509 36.2092 129.715C36.1021 129.811 36.0386 129.849 36.0081 129.864C36.0019 129.867 35.9975 129.869 35.9948 129.87C35.992 129.869 35.9876 129.867 35.9814 129.864C35.9509 129.849 35.8874 129.811 35.7803 129.715C35.5494 129.509 35.2691 129.179 34.8126 128.636L33.0109 126.493C32.6844 126.105 32.1022 126.053 31.7105 126.376C31.3188 126.7 31.2658 127.277 31.5923 127.665L33.4333 129.854C33.8377 130.335 34.2022 130.769 34.5427 131.074C34.9132 131.405 35.3799 131.7 35.9948 131.7C36.6097 131.7 37.0763 131.405 37.4468 131.074C37.7873 130.769 38.1518 130.335 38.5562 129.854L42.8594 124.737Z" fill="url(#paint7_linear_0_1)"/>
</g>
<g clip-path="url(#clip1_0_1)">
<g filter="url(#filter3_b_0_1)">
<path fill-rule="evenodd" clip-rule="evenodd" d="M16.6156 117.381C18.6313 110.381 28.6413 110.381 30.657 117.381C31.3007 119.616 33.6181 120.942 35.8934 120.377C43.0181 118.607 48.0231 127.198 42.9141 132.428C41.2825 134.098 41.2825 136.75 42.9141 138.42C48.0231 143.65 43.0181 152.241 35.8934 150.471C33.6181 149.906 31.3007 151.232 30.657 153.467C28.6413 160.467 18.6313 160.467 16.6156 153.467C15.9719 151.232 13.6545 149.906 11.3792 150.471C4.25446 152.241 -0.750495 143.65 4.35853 138.42C5.99009 136.75 5.99009 134.098 4.35853 132.428C-0.750494 127.198 4.25446 118.607 11.3792 120.377C13.6545 120.942 15.9719 119.616 16.6156 117.381Z" fill="#3B2E8C" fill-opacity="0.35"/>
<path fill-rule="evenodd" clip-rule="evenodd" d="M16.6156 117.381C18.6313 110.381 28.6413 110.381 30.657 117.381C31.3007 119.616 33.6181 120.942 35.8934 120.377C43.0181 118.607 48.0231 127.198 42.9141 132.428C41.2825 134.098 41.2825 136.75 42.9141 138.42C48.0231 143.65 43.0181 152.241 35.8934 150.471C33.6181 149.906 31.3007 151.232 30.657 153.467C28.6413 160.467 18.6313 160.467 16.6156 153.467C15.9719 151.232 13.6545 149.906 11.3792 150.471C4.25446 152.241 -0.750495 143.65 4.35853 138.42C5.99009 136.75 5.99009 134.098 4.35853 132.428C-0.750494 127.198 4.25446 118.607 11.3792 120.377C13.6545 120.942 15.9719 119.616 16.6156 117.381Z" stroke="url(#paint8_linear_0_1)" stroke-linecap="round"/>
</g>
<g filter="url(#filter4_d_0_1)">
<path fill-rule="evenodd" clip-rule="evenodd" d="M32.65 130.505C33.1723 129.884 33.0876 128.961 32.4609 128.443C31.8341 127.926 30.9026 128.01 30.3803 128.631L23.5581 136.744C22.8278 137.613 22.3793 138.14 22.0098 138.471C21.8384 138.624 21.7368 138.686 21.6881 138.709C21.6782 138.714 21.6711 138.717 21.6667 138.718C21.6622 138.717 21.6552 138.714 21.6453 138.709C21.5965 138.686 21.4949 138.624 21.3236 138.471C20.9541 138.14 20.5056 137.613 19.7752 136.744L16.8925 133.316C16.3701 132.695 15.4386 132.611 14.8119 133.128C14.1851 133.646 14.1004 134.569 14.6227 135.19L17.5684 138.693C18.2154 139.463 18.7986 140.157 19.3434 140.644C19.9362 141.175 20.6828 141.647 21.6667 141.647C22.6505 141.647 23.3971 141.175 23.9899 140.644C24.5347 140.157 25.118 139.463 25.7649 138.693L32.65 130.505Z" fill="url(#paint9_linear_0_1)"/>
</g>
</g>
<g clip-path="url(#clip2_0_1)">
<path fill-rule="evenodd" clip-rule="evenodd" d="M146.608 268.113C150.036 267.195 152.723 266.475 154.917 266.134C157.156 265.787 159.049 265.805 160.847 266.495C161.936 266.913 162.952 267.499 163.858 268.233C165.355 269.445 166.317 271.076 167.135 273.189C167.938 275.259 168.658 277.946 169.576 281.374L169.621 281.543C170.54 284.971 171.26 287.658 171.6 289.851C171.947 292.09 171.93 293.984 171.24 295.782C170.822 296.871 170.235 297.887 169.502 298.793C168.29 300.289 166.658 301.251 164.546 302.07C162.476 302.872 159.789 303.592 156.361 304.511L156.192 304.556C152.764 305.474 150.077 306.194 147.883 306.535C145.644 306.882 143.751 306.865 141.953 306.174C140.864 305.757 139.848 305.17 138.942 304.436C137.445 303.224 136.483 301.593 135.665 299.48C134.862 297.41 134.142 294.723 133.224 291.295L133.179 291.126C132.26 287.698 131.54 285.011 131.2 282.818C130.853 280.579 130.87 278.685 131.56 276.887C131.978 275.799 132.565 274.783 133.298 273.877C134.51 272.38 136.142 271.418 138.254 270.599C140.324 269.797 143.011 269.077 146.439 268.159L146.608 268.113ZM150.299 276.627C150.092 275.854 149.297 275.395 148.524 275.602C147.751 275.809 147.292 276.604 147.499 277.377L152.501 296.042C152.708 296.815 153.503 297.274 154.276 297.067C155.049 296.86 155.508 296.065 155.301 295.292L150.299 276.627ZM159.766 282.092C159.559 281.319 158.764 280.86 157.991 281.068C157.218 281.275 156.759 282.069 156.966 282.843L159.967 294.042C160.174 294.815 160.969 295.274 161.742 295.067C162.515 294.859 162.974 294.065 162.767 293.292L159.766 282.092ZM145.834 289.827C145.627 289.053 144.832 288.595 144.059 288.802C143.286 289.009 142.827 289.804 143.034 290.577L145.035 298.043C145.242 298.816 146.037 299.275 146.81 299.068C147.583 298.86 148.042 298.066 147.834 297.293L145.834 289.827Z" fill="url(#paint10_linear_0_1)"/>
</g>
<g clip-path="url(#clip3_0_1)">
<g filter="url(#filter5_b_0_1)">
<path fill-rule="evenodd" clip-rule="evenodd" d="M164.516 264.52C168.378 265.555 171.406 266.366 173.738 267.27C176.118 268.192 177.956 269.276 179.322 270.963C180.149 271.984 180.81 273.128 181.281 274.355C182.058 276.381 182.078 278.515 181.687 281.037C181.303 283.509 180.492 286.537 179.457 290.399L179.406 290.59C178.371 294.452 177.56 297.48 176.656 299.812C175.733 302.192 174.65 304.031 172.963 305.396C171.942 306.223 170.797 306.884 169.571 307.355C167.545 308.132 165.411 308.152 162.889 307.761C160.417 307.377 157.389 306.566 153.527 305.531L153.336 305.48C149.474 304.445 146.446 303.634 144.114 302.73C141.734 301.808 139.895 300.724 138.53 299.037C137.703 298.016 137.042 296.872 136.571 295.645C135.793 293.619 135.774 291.485 136.165 288.963C136.549 286.491 137.36 283.463 138.395 279.601L138.446 279.41C139.481 275.548 140.292 272.52 141.196 270.188C142.118 267.808 143.202 265.969 144.889 264.604C145.91 263.777 147.054 263.116 148.281 262.645C150.307 261.868 152.441 261.848 154.963 262.239C157.435 262.623 160.463 263.434 164.325 264.469L164.516 264.52Z" fill="#5F45BF" fill-opacity="0.27"/>
<path fill-rule="evenodd" clip-rule="evenodd" d="M164.516 264.52C168.378 265.555 171.406 266.366 173.738 267.27C176.118 268.192 177.956 269.276 179.322 270.963C180.149 271.984 180.81 273.128 181.281 274.355C182.058 276.381 182.078 278.515 181.687 281.037C181.303 283.509 180.492 286.537 179.457 290.399L179.406 290.59C178.371 294.452 177.56 297.48 176.656 299.812C175.733 302.192 174.65 304.031 172.963 305.396C171.942 306.223 170.797 306.884 169.571 307.355C167.545 308.132 165.411 308.152 162.889 307.761C160.417 307.377 157.389 306.566 153.527 305.531L153.336 305.48C149.474 304.445 146.446 303.634 144.114 302.73C141.734 301.808 139.895 300.724 138.53 299.037C137.703 298.016 137.042 296.872 136.571 295.645C135.793 293.619 135.774 291.485 136.165 288.963C136.549 286.491 137.36 283.463 138.395 279.601L138.446 279.41C139.481 275.548 140.292 272.52 141.196 270.188C142.118 267.808 143.202 265.969 144.889 264.604C145.91 263.777 147.054 263.116 148.281 262.645C150.307 261.868 152.441 261.848 154.963 262.239C157.435 262.623 160.463 263.434 164.325 264.469L164.516 264.52Z" stroke="url(#paint11_linear_0_1)" stroke-linecap="round"/>
</g>
<g filter="url(#filter6_d_0_1)">
<path fill-rule="evenodd" clip-rule="evenodd" d="M163.321 274.907C163.554 274.036 163.037 273.14 162.166 272.907C161.295 272.674 160.4 273.191 160.166 274.062L154.531 295.093C154.297 295.964 154.814 296.86 155.686 297.093C156.557 297.326 157.452 296.809 157.686 295.938L163.321 274.907ZM169.479 285.574C169.713 284.703 169.196 283.807 168.325 283.574C167.453 283.34 166.558 283.857 166.325 284.728L162.943 297.347C162.71 298.218 163.227 299.114 164.098 299.347C164.969 299.581 165.865 299.064 166.098 298.192L169.479 285.574ZM151.527 285.272C151.761 284.401 151.244 283.505 150.372 283.272C149.501 283.038 148.606 283.555 148.372 284.426L146.118 292.839C145.885 293.71 146.402 294.605 147.273 294.839C148.144 295.072 149.04 294.555 149.273 293.684L151.527 285.272Z" fill="url(#paint12_linear_0_1)"/>
</g>
</g>
<defs>
<filter id="filter0_f_0_1" x="1060.22" y="0.652222" width="109.913" height="104.348" filterUnits="userSpaceOnUse" color-interpolation-filters="sRGB">
<feFlood flood-opacity="0" result="BackgroundImageFix"/>
<feBlend mode="normal" in="SourceGraphic" in2="BackgroundImageFix" result="shape"/>
<feGaussianBlur stdDeviation="20" result="effect1_foregroundBlur_0_1"/>
</filter>
<filter id="filter1_f_0_1" x="1068.83" y="5.78259" width="79.4783" height="75.3043" filterUnits="userSpaceOnUse" color-interpolation-filters="sRGB">
<feFlood flood-opacity="0" result="BackgroundImageFix"/>
<feBlend mode="normal" in="SourceGraphic" in2="BackgroundImageFix" result="shape"/>
<feGaussianBlur stdDeviation="15" result="effect1_foregroundBlur_0_1"/>
</filter>
<filter id="filter2_bi_0_1" x="1046" y="-8" width="95.2174" height="86.8695" filterUnits="userSpaceOnUse" color-interpolation-filters="sRGB">
<feFlood flood-opacity="0" result="BackgroundImageFix"/>
<feGaussianBlur in="BackgroundImageFix" stdDeviation="12.5"/>
<feComposite in2="SourceAlpha" operator="in" result="effect1_backgroundBlur_0_1"/>
<feBlend mode="normal" in="SourceGraphic" in2="effect1_backgroundBlur_0_1" result="shape"/>
<feColorMatrix in="SourceAlpha" type="matrix" values="0 0 0 0 0 0 0 0 0 0 0 0 0 0 0 0 0 0 127 0" result="hardAlpha"/>
<feOffset dy="4"/>
<feGaussianBlur stdDeviation="20"/>
<feComposite in2="hardAlpha" operator="arithmetic" k2="-1" k3="1"/>
<feColorMatrix type="matrix" values="0 0 0 0 1 0 0 0 0 1 0 0 0 0 1 0 0 0 0.35 0"/>
<feBlend mode="normal" in2="shape" result="effect2_innerShadow_0_1"/>
</filter>
<filter id="filter3_b_0_1" x="-22.2349" y="87.6311" width="91.7424" height="95.5862" filterUnits="userSpaceOnUse" color-interpolation-filters="sRGB">
<feFlood flood-opacity="0" result="BackgroundImageFix"/>
<feGaussianBlur in="BackgroundImageFix" stdDeviation="12"/>
<feComposite in2="SourceAlpha" operator="in" result="effect1_backgroundBlur_0_1"/>
<feBlend mode="normal" in="SourceGraphic" in2="effect1_backgroundBlur_0_1" result="shape"/>
</filter>
<filter id="filter4_d_0_1" x="11.0244" y="124.848" width="31.7355" height="26.5664" filterUnits="userSpaceOnUse" color-interpolation-filters="sRGB">
<feFlood flood-opacity="0" result="BackgroundImageFix"/>
<feColorMatrix in="SourceAlpha" type="matrix" values="0 0 0 0 0 0 0 0 0 0 0 0 0 0 0 0 0 0 127 0" result="hardAlpha"/>
<feOffset dx="3.25583" dy="3.25583"/>
<feGaussianBlur stdDeviation="3.25583"/>
<feColorMatrix type="matrix" values="0 0 0 0 0.369526 0 0 0 0 0.253993 0 0 0 0 0.791667 0 0 0 0.49 0"/>
<feBlend mode="normal" in2="BackgroundImageFix" result="effect1_dropShadow_0_1"/>
<feBlend mode="normal" in="SourceGraphic" in2="effect1_dropShadow_0_1" result="shape"/>
</filter>
<filter id="filter5_b_0_1" x="111.415" y="237.489" width="95.0217" height="95.0217" filterUnits="userSpaceOnUse" color-interpolation-filters="sRGB">
<feFlood flood-opacity="0" result="BackgroundImageFix"/>
<feGaussianBlur in="BackgroundImageFix" stdDeviation="12"/>
<feComposite in2="SourceAlpha" operator="in" result="effect1_backgroundBlur_0_1"/>
<feBlend mode="normal" in="SourceGraphic" in2="effect1_backgroundBlur_0_1" result="shape"/>
</filter>
<filter id="filter6_d_0_1" x="143.062" y="269.851" width="39.4731" height="42.5522" filterUnits="userSpaceOnUse" color-interpolation-filters="sRGB">
<feFlood flood-opacity="0" result="BackgroundImageFix"/>
<feColorMatrix in="SourceAlpha" type="matrix" values="0 0 0 0 0 0 0 0 0 0 0 0 0 0 0 0 0 0 127 0" result="hardAlpha"/>
<feOffset dx="5" dy="5"/>
<feGaussianBlur stdDeviation="4"/>
<feColorMatrix type="matrix" values="0 0 0 0 0.176471 0 0 0 0 0.556863 0 0 0 0 0.678431 0 0 0 0.5 0"/>
<feBlend mode="normal" in2="BackgroundImageFix" result="effect1_dropShadow_0_1"/>
<feBlend mode="normal" in="SourceGraphic" in2="effect1_dropShadow_0_1" result="shape"/>
</filter>
<radialGradient id="paint0_radial_0_1" cx="0" cy="0" r="1" gradientUnits="userSpaceOnUse" gradientTransform="translate(1091.5 277.5) rotate(91.2189) scale(16.7895 71.2569)">
<stop stop-color="#563FB2"/>
<stop offset="1" stop-color="#CDC6E6"/>
</radialGradient>
<radialGradient id="paint1_radial_0_1" cx="0" cy="0" r="1" gradientUnits="userSpaceOnUse" gradientTransform="translate(1139.5 235.5) rotate(91.2189) scale(7.83511 33.2532)">
<stop stop-color="#563FB2"/>
<stop offset="1" stop-color="#CDC6E6"/>
</radialGradient>
<radialGradient id="paint2_radial_0_1" cx="0" cy="0" r="1" gradientUnits="userSpaceOnUse" gradientTransform="translate(106.5 36.5) rotate(91.2189) scale(14.5509 61.756)">
<stop stop-color="#563FB2"/>
<stop offset="1" stop-color="#CDC6E6"/>
</radialGradient>
<radialGradient id="paint3_radial_0_1" cx="0" cy="0" r="1" gradientUnits="userSpaceOnUse" gradientTransform="translate(48.5 396.5) rotate(91.2189) scale(7.83511 33.2532)">
<stop stop-color="#563FB2"/>
<stop offset="1" stop-color="#CDC6E6"/>
</radialGradient>
<linearGradient id="paint4_linear_0_1" x1="1100.22" y1="38.6515" x2="1118.79" y2="80.6588" gradientUnits="userSpaceOnUse">
<stop stop-color="#644398"/>
<stop offset="1" stop-color="#A87ED5"/>
</linearGradient>
<linearGradient id="paint5_linear_0_1" x1="1104.25" y1="33.4366" x2="1125.84" y2="63.7121" gradientUnits="userSpaceOnUse">
<stop offset="0.283719" stop-color="#47369D"/>
<stop offset="1" stop-color="#CA99F0"/>
</linearGradient>
<linearGradient id="paint6_linear_0_1" x1="1071.96" y1="17" x2="1106.29" y2="48.8205" gradientUnits="userSpaceOnUse">
<stop stop-color="#5F45BF" stop-opacity="0.1"/>
<stop offset="0.515821" stop-color="#5F45BF" stop-opacity="0.8"/>
<stop offset="0.779545" stop-color="#5F45BF"/>
<stop offset="0.988497" stop-color="#5F45BF"/>
</linearGradient>
<linearGradient id="paint7_linear_0_1" x1="23.8717" y1="142.369" x2="53.3873" y2="116.45" gradientUnits="userSpaceOnUse">
<stop stop-color="#3B2E8C"/>
<stop offset="1" stop-color="#B873FF"/>
</linearGradient>
<linearGradient id="paint8_linear_0_1" x1="2.26978" y1="112.131" x2="48.7024" y2="154.68" gradientUnits="userSpaceOnUse">
<stop stop-color="white" stop-opacity="0.25"/>
<stop offset="1" stop-color="white" stop-opacity="0"/>
</linearGradient>
<linearGradient id="paint9_linear_0_1" x1="23.7939" y1="144.532" x2="41.6608" y2="120.334" gradientUnits="userSpaceOnUse">
<stop stop-color="white"/>
<stop offset="1" stop-color="white" stop-opacity="0.2"/>
</linearGradient>
<linearGradient id="paint10_linear_0_1" x1="138.078" y1="309.41" x2="165.715" y2="263.862" gradientUnits="userSpaceOnUse">
<stop stop-color="#CE635D" stop-opacity="0.93"/>
<stop offset="1" stop-color="#CFA8F4"/>
</linearGradient>
<linearGradient id="paint11_linear_0_1" x1="143.915" y1="259" x2="173.963" y2="310.985" gradientUnits="userSpaceOnUse">
<stop stop-color="white" stop-opacity="0.25"/>
<stop offset="1" stop-color="white" stop-opacity="0"/>
</linearGradient>
<linearGradient id="paint12_linear_0_1" x1="154.473" y1="302.291" x2="194.217" y2="284.596" gradientUnits="userSpaceOnUse">
<stop stop-color="white"/>
<stop offset="1" stop-color="white" stop-opacity="0.2"/>
</linearGradient>
<clipPath id="clip0_0_1">
<rect width="29.5454" height="29.2803" fill="white" transform="translate(22.4531 113.171)"/>
</clipPath>
<clipPath id="clip1_0_1">
<rect width="47.2727" height="46.8485" fill="white" transform="translate(0 112)"/>
</clipPath>
<clipPath id="clip2_0_1">
<rect width="46.377" height="46.377" fill="white" transform="translate(123 269.938) rotate(-15)"/>
</clipPath>
<clipPath id="clip3_0_1">
<rect width="52.2558" height="52.2558" fill="white" transform="translate(140.451 253) rotate(15)"/>
</clipPath>
</defs>
</svg>

       