   <svg width="1440" height="309" viewBox="0 0 1440 309" fill="none" xmlns="http://www.w3.org/2000/svg">
<rect width="1440" height="309" fill="#3B2E8C"/>
<path d="M586.469 122.255L582.805 130H580.214L585.491 120.047H587.146L586.469 122.255ZM587.098 130L586.086 122.016L586.141 120.047H587.699L589.538 130H587.098ZM587.631 126.288L587.303 128.141H582.333L582.661 126.288H587.631ZM592.013 119.5H594.262L592.73 128.305L592.218 130H590.188L592.013 119.5ZM597.481 126.179L597.468 126.329C597.413 126.789 597.313 127.25 597.167 127.71C597.021 128.166 596.818 128.58 596.559 128.954C596.303 129.323 595.98 129.617 595.588 129.836C595.201 130.055 594.738 130.157 594.2 130.144C593.735 130.13 593.355 130 593.059 129.754C592.762 129.508 592.535 129.196 592.375 128.817C592.215 128.435 592.106 128.031 592.047 127.607C591.992 127.179 591.969 126.778 591.979 126.404L591.992 126.227C592.065 125.83 592.181 125.411 592.341 124.969C592.505 124.527 592.717 124.114 592.977 123.731C593.236 123.344 593.549 123.032 593.913 122.795C594.278 122.558 594.697 122.446 595.171 122.46C595.686 122.469 596.105 122.588 596.429 122.815C596.752 123.039 596.998 123.333 597.167 123.697C597.336 124.062 597.44 124.461 597.481 124.894C597.527 125.326 597.527 125.755 597.481 126.179ZM595.226 126.322L595.232 126.172C595.251 126.003 595.264 125.81 595.273 125.591C595.287 125.372 595.278 125.162 595.246 124.962C595.214 124.757 595.139 124.586 595.021 124.449C594.902 124.312 594.72 124.24 594.474 124.23C594.205 124.217 593.977 124.26 593.79 124.36C593.603 124.461 593.451 124.597 593.332 124.771C593.214 124.944 593.122 125.14 593.059 125.358C592.995 125.577 592.949 125.8 592.922 126.028L592.86 126.575C592.833 126.84 592.824 127.108 592.833 127.382C592.847 127.655 592.922 127.885 593.059 128.072C593.195 128.259 593.437 128.357 593.783 128.366C594.066 128.375 594.296 128.316 594.474 128.188C594.651 128.061 594.79 127.895 594.891 127.689C594.991 127.48 595.064 127.254 595.109 127.013C595.16 126.771 595.198 126.541 595.226 126.322ZM598.179 126.418L598.192 126.274C598.252 125.741 598.382 125.242 598.582 124.777C598.783 124.312 599.049 123.905 599.382 123.554C599.719 123.203 600.116 122.932 600.571 122.74C601.027 122.544 601.537 122.453 602.103 122.467C602.645 122.476 603.114 122.581 603.511 122.781C603.907 122.982 604.233 123.255 604.488 123.602C604.743 123.943 604.924 124.34 605.028 124.791C605.138 125.238 605.17 125.714 605.124 126.22L605.11 126.37C605.051 126.899 604.919 127.393 604.714 127.854C604.509 128.314 604.238 128.717 603.9 129.063C603.568 129.41 603.174 129.679 602.718 129.87C602.262 130.062 601.754 130.15 601.193 130.137C600.66 130.128 600.193 130.025 599.792 129.829C599.396 129.629 599.07 129.36 598.814 129.022C598.559 128.681 598.377 128.289 598.268 127.847C598.163 127.4 598.133 126.924 598.179 126.418ZM600.441 126.274L600.428 126.418C600.414 126.605 600.405 126.81 600.4 127.033C600.4 127.252 600.425 127.464 600.476 127.669C600.526 127.869 600.617 128.036 600.749 128.168C600.886 128.296 601.082 128.364 601.337 128.373C601.61 128.382 601.838 128.325 602.021 128.202C602.207 128.079 602.358 127.915 602.472 127.71C602.586 127.505 602.672 127.284 602.731 127.047C602.795 126.81 602.839 126.582 602.861 126.363L602.875 126.22C602.889 126.037 602.896 125.835 602.896 125.611C602.9 125.383 602.877 125.167 602.827 124.962C602.777 124.757 602.684 124.588 602.547 124.456C602.41 124.319 602.214 124.246 601.959 124.237C601.686 124.228 601.455 124.287 601.269 124.415C601.086 124.543 600.938 124.711 600.824 124.921C600.71 125.126 600.624 125.349 600.564 125.591C600.505 125.828 600.464 126.056 600.441 126.274ZM609.964 128.086L610.914 122.604H613.17L611.885 130H609.786L609.964 128.086ZM610.388 126.691L610.969 126.678C610.923 127.097 610.832 127.514 610.695 127.929C610.559 128.343 610.369 128.719 610.128 129.057C609.886 129.394 609.586 129.663 609.226 129.863C608.87 130.059 608.449 130.153 607.961 130.144C607.555 130.134 607.211 130.057 606.929 129.911C606.651 129.765 606.427 129.567 606.259 129.316C606.09 129.061 605.976 128.77 605.917 128.441C605.858 128.113 605.846 127.762 605.883 127.389L606.683 122.604H608.932L608.118 127.416C608.104 127.548 608.104 127.671 608.118 127.785C608.136 127.899 608.171 127.999 608.221 128.086C608.275 128.168 608.351 128.234 608.446 128.284C608.542 128.334 608.665 128.362 608.815 128.366C609.157 128.38 609.435 128.309 609.649 128.154C609.864 127.995 610.028 127.785 610.142 127.525C610.26 127.266 610.342 126.988 610.388 126.691ZM618.188 122.604L617.907 124.203H613.573L613.854 122.604H618.188ZM615.077 120.765H617.326L616.15 127.601C616.132 127.76 616.132 127.892 616.15 127.997C616.169 128.097 616.216 128.175 616.294 128.229C616.376 128.28 616.501 128.309 616.67 128.318C616.766 128.323 616.861 128.321 616.957 128.312C617.053 128.302 617.148 128.293 617.244 128.284L617.087 129.952C616.891 130.016 616.69 130.062 616.485 130.089C616.285 130.116 616.08 130.13 615.87 130.13C615.405 130.121 615.016 130.027 614.701 129.85C614.391 129.667 614.166 129.41 614.024 129.077C613.888 128.74 613.84 128.339 613.881 127.874L615.077 120.765ZM628.318 120.047H630.656L629.549 126.541C629.439 127.302 629.191 127.954 628.804 128.496C628.421 129.038 627.926 129.451 627.32 129.733C626.714 130.016 626.028 130.153 625.263 130.144C624.552 130.13 623.93 129.977 623.396 129.686C622.868 129.394 622.471 128.981 622.207 128.448C621.943 127.915 621.854 127.282 621.94 126.548L623.048 120.047H625.393L624.292 126.555C624.256 126.855 624.258 127.136 624.299 127.396C624.344 127.655 624.454 127.867 624.627 128.031C624.8 128.195 625.06 128.282 625.406 128.291C625.775 128.305 626.083 128.236 626.329 128.086C626.58 127.936 626.776 127.726 626.917 127.457C627.063 127.188 627.161 126.885 627.211 126.548L628.318 120.047ZM634.443 127.881C634.48 127.689 634.423 127.544 634.272 127.443C634.127 127.339 633.951 127.261 633.746 127.211C633.546 127.156 633.384 127.113 633.261 127.081C632.983 127.008 632.707 126.915 632.434 126.801C632.16 126.682 631.912 126.536 631.688 126.363C631.47 126.186 631.294 125.974 631.162 125.728C631.035 125.477 630.978 125.185 630.991 124.853C631.005 124.442 631.107 124.087 631.299 123.786C631.495 123.485 631.748 123.237 632.058 123.041C632.368 122.84 632.705 122.692 633.069 122.597C633.438 122.501 633.805 122.458 634.17 122.467C634.671 122.471 635.143 122.56 635.585 122.733C636.032 122.907 636.394 123.171 636.672 123.526C636.954 123.882 637.098 124.333 637.103 124.88L634.867 124.873C634.872 124.695 634.849 124.54 634.799 124.408C634.753 124.276 634.674 124.176 634.56 124.107C634.446 124.035 634.291 123.998 634.095 123.998C633.949 123.998 633.805 124.028 633.664 124.087C633.523 124.146 633.4 124.23 633.295 124.34C633.195 124.449 633.131 124.581 633.104 124.736C633.076 124.868 633.094 124.98 633.158 125.071C633.222 125.158 633.309 125.229 633.418 125.283C633.527 125.338 633.641 125.383 633.76 125.42C633.883 125.452 633.992 125.477 634.088 125.495C634.503 125.595 634.904 125.73 635.291 125.898C635.683 126.062 636.002 126.297 636.248 126.603C636.499 126.903 636.617 127.304 636.604 127.806C636.59 128.229 636.476 128.592 636.262 128.893C636.048 129.189 635.772 129.43 635.435 129.617C635.102 129.799 634.742 129.932 634.354 130.014C633.972 130.1 633.6 130.141 633.24 130.137C632.739 130.128 632.265 130.027 631.818 129.836C631.372 129.64 631.007 129.357 630.725 128.988C630.447 128.615 630.301 128.157 630.287 127.614L632.365 127.621C632.37 127.835 632.409 128.015 632.481 128.161C632.559 128.302 632.671 128.412 632.816 128.489C632.962 128.562 633.142 128.599 633.356 128.599C633.516 128.599 633.671 128.576 633.821 128.53C633.976 128.48 634.108 128.403 634.218 128.298C634.332 128.188 634.407 128.049 634.443 127.881Z" fill="white"/>
<path d="M678.085 124.784L678.037 125.188C677.946 125.839 677.771 126.466 677.511 127.067C677.256 127.664 676.918 128.195 676.499 128.66C676.084 129.125 675.592 129.492 675.022 129.761C674.453 130.025 673.812 130.15 673.102 130.137C672.418 130.123 671.835 129.977 671.352 129.699C670.873 129.421 670.49 129.05 670.203 128.585C669.921 128.12 669.729 127.598 669.629 127.02C669.529 126.441 669.515 125.844 669.588 125.229L669.636 124.825C669.727 124.178 669.902 123.558 670.162 122.966C670.422 122.369 670.761 121.838 671.181 121.373C671.6 120.908 672.094 120.546 672.664 120.286C673.234 120.022 673.872 119.896 674.578 119.91C675.257 119.919 675.836 120.063 676.314 120.341C676.793 120.619 677.174 120.99 677.456 121.455C677.743 121.915 677.937 122.435 678.037 123.014C678.142 123.588 678.158 124.178 678.085 124.784ZM675.658 125.229L675.713 124.805C675.745 124.536 675.765 124.233 675.774 123.896C675.784 123.558 675.754 123.232 675.686 122.918C675.617 122.599 675.485 122.335 675.289 122.125C675.098 121.915 674.815 121.801 674.441 121.783C674.027 121.765 673.676 121.849 673.389 122.036C673.102 122.218 672.865 122.465 672.678 122.774C672.495 123.08 672.352 123.412 672.247 123.772C672.142 124.132 672.067 124.479 672.021 124.812L671.967 125.235C671.935 125.504 671.912 125.81 671.898 126.151C671.889 126.489 671.917 126.817 671.98 127.136C672.049 127.455 672.181 127.721 672.377 127.936C672.573 128.145 672.86 128.257 673.238 128.271C673.644 128.289 673.99 128.204 674.277 128.018C674.564 127.826 674.801 127.576 674.988 127.266C675.18 126.956 675.328 126.621 675.433 126.261C675.542 125.901 675.617 125.557 675.658 125.229ZM682.815 128.086L683.766 122.604H686.021L684.736 130H682.638L682.815 128.086ZM683.239 126.691L683.82 126.678C683.775 127.097 683.684 127.514 683.547 127.929C683.41 128.343 683.221 128.719 682.979 129.057C682.738 129.394 682.437 129.663 682.077 129.863C681.722 130.059 681.3 130.153 680.812 130.144C680.407 130.134 680.063 130.057 679.78 129.911C679.502 129.765 679.279 129.567 679.11 129.316C678.942 129.061 678.828 128.77 678.769 128.441C678.709 128.113 678.698 127.762 678.734 127.389L679.534 122.604H681.783L680.97 127.416C680.956 127.548 680.956 127.671 680.97 127.785C680.988 127.899 681.022 127.999 681.072 128.086C681.127 128.168 681.202 128.234 681.298 128.284C681.394 128.334 681.517 128.362 681.667 128.366C682.009 128.38 682.287 128.309 682.501 128.154C682.715 127.995 682.879 127.785 682.993 127.525C683.112 127.266 683.194 126.988 683.239 126.691ZM689.173 124.559L688.229 130H685.98L687.266 122.604H689.357L689.173 124.559ZM691.593 122.542L691.299 124.688C691.18 124.67 691.062 124.654 690.943 124.641C690.825 124.627 690.704 124.618 690.581 124.613C690.33 124.609 690.103 124.638 689.897 124.702C689.697 124.761 689.521 124.855 689.371 124.982C689.225 125.105 689.104 125.26 689.009 125.447C688.913 125.634 688.842 125.851 688.797 126.097L688.421 125.823C688.466 125.477 688.539 125.11 688.64 124.723C688.744 124.331 688.89 123.962 689.077 123.615C689.264 123.269 689.506 122.989 689.802 122.774C690.098 122.556 690.463 122.446 690.896 122.446C691.014 122.446 691.13 122.455 691.244 122.474C691.358 122.492 691.474 122.515 691.593 122.542ZM700.124 127.307C700.165 127.092 700.149 126.91 700.076 126.76C700.008 126.609 699.903 126.482 699.762 126.377C699.625 126.272 699.468 126.183 699.29 126.11C699.117 126.033 698.948 125.962 698.784 125.898C698.429 125.757 698.078 125.598 697.731 125.42C697.385 125.238 697.071 125.023 696.788 124.777C696.506 124.531 696.285 124.244 696.125 123.916C695.97 123.588 695.904 123.203 695.927 122.761C695.959 122.255 696.102 121.82 696.357 121.455C696.613 121.09 696.938 120.794 697.335 120.566C697.736 120.334 698.167 120.165 698.627 120.061C699.092 119.951 699.545 119.901 699.987 119.91C700.616 119.919 701.177 120.047 701.669 120.293C702.166 120.539 702.555 120.892 702.838 121.353C703.12 121.808 703.257 122.36 703.248 123.007H700.931C700.94 122.752 700.906 122.531 700.828 122.344C700.755 122.152 700.634 122.004 700.466 121.899C700.297 121.79 700.078 121.733 699.81 121.729C699.586 121.724 699.363 121.76 699.14 121.838C698.916 121.911 698.723 122.025 698.559 122.18C698.395 122.335 698.29 122.535 698.244 122.781C698.212 122.968 698.242 123.132 698.333 123.273C698.424 123.41 698.549 123.529 698.709 123.629C698.868 123.725 699.035 123.807 699.208 123.875C699.386 123.943 699.541 124.003 699.673 124.053C700.047 124.194 700.404 124.36 700.746 124.552C701.092 124.739 701.398 124.96 701.662 125.215C701.931 125.47 702.136 125.769 702.277 126.11C702.423 126.448 702.482 126.84 702.455 127.286C702.419 127.801 702.282 128.241 702.045 128.605C701.808 128.97 701.503 129.266 701.129 129.494C700.755 129.722 700.345 129.888 699.898 129.993C699.452 130.098 698.998 130.148 698.538 130.144C698.023 130.134 697.542 130.057 697.096 129.911C696.649 129.761 696.259 129.544 695.927 129.262C695.594 128.975 695.337 128.624 695.154 128.209C694.972 127.79 694.885 127.309 694.895 126.767L697.239 126.773C697.226 127.029 697.242 127.254 697.287 127.45C697.337 127.642 697.419 127.803 697.533 127.936C697.652 128.063 697.804 128.161 697.991 128.229C698.178 128.293 698.404 128.325 698.668 128.325C698.891 128.325 699.105 128.291 699.311 128.223C699.52 128.15 699.698 128.038 699.844 127.888C699.99 127.737 700.083 127.544 700.124 127.307ZM706.741 130.137C706.231 130.128 705.766 130.034 705.347 129.856C704.927 129.674 704.572 129.424 704.28 129.104C703.989 128.785 703.772 128.412 703.631 127.983C703.494 127.55 703.444 127.079 703.48 126.568L703.508 126.302C703.562 125.764 703.69 125.263 703.891 124.798C704.091 124.328 704.36 123.918 704.697 123.567C705.035 123.212 705.431 122.936 705.887 122.74C706.347 122.544 706.862 122.453 707.432 122.467C707.947 122.476 708.391 122.578 708.765 122.774C709.143 122.97 709.451 123.237 709.688 123.574C709.924 123.907 710.089 124.29 710.18 124.723C710.275 125.151 710.298 125.607 710.248 126.09L710.118 127.026H704.239L704.472 125.584L708.095 125.591L708.136 125.393C708.168 125.178 708.159 124.985 708.108 124.812C708.058 124.638 707.965 124.502 707.828 124.401C707.691 124.297 707.507 124.24 707.274 124.23C706.992 124.226 706.757 124.287 706.57 124.415C706.388 124.543 706.24 124.711 706.126 124.921C706.017 125.131 705.932 125.358 705.873 125.604C705.814 125.846 705.771 126.078 705.743 126.302L705.716 126.562C705.698 126.785 705.704 127.001 705.736 127.211C705.768 127.421 705.832 127.61 705.928 127.778C706.028 127.947 706.162 128.084 706.331 128.188C706.5 128.289 706.712 128.343 706.967 128.353C707.309 128.362 707.628 128.298 707.924 128.161C708.22 128.024 708.487 127.838 708.724 127.601L709.66 128.845C709.455 129.155 709.191 129.405 708.867 129.597C708.544 129.784 708.195 129.92 707.821 130.007C707.452 130.098 707.092 130.141 706.741 130.137ZM713.7 124.559L712.757 130H710.508L711.793 122.604H713.885L713.7 124.559ZM716.12 122.542L715.826 124.688C715.708 124.67 715.589 124.654 715.471 124.641C715.352 124.627 715.231 124.618 715.108 124.613C714.858 124.609 714.63 124.638 714.425 124.702C714.224 124.761 714.049 124.855 713.898 124.982C713.753 125.105 713.632 125.26 713.536 125.447C713.44 125.634 713.37 125.851 713.324 126.097L712.948 125.823C712.994 125.477 713.067 125.11 713.167 124.723C713.272 124.331 713.418 123.962 713.604 123.615C713.791 123.269 714.033 122.989 714.329 122.774C714.625 122.556 714.99 122.446 715.423 122.446C715.541 122.446 715.658 122.455 715.771 122.474C715.885 122.492 716.002 122.515 716.12 122.542ZM718.677 128.332L720.967 122.604H723.394L719.887 130H718.458L718.677 128.332ZM718.731 122.604L719.224 128.53L718.978 130H717.604L716.414 122.604H718.731ZM726.436 122.604L725.157 130H722.901L724.187 122.604H726.436ZM724.385 120.737C724.376 120.382 724.494 120.099 724.74 119.89C724.991 119.68 725.285 119.573 725.622 119.568C725.946 119.564 726.233 119.66 726.483 119.855C726.734 120.047 726.862 120.313 726.866 120.655C726.875 121.011 726.755 121.293 726.504 121.503C726.258 121.713 725.966 121.82 725.629 121.824C725.305 121.829 725.018 121.735 724.768 121.544C724.521 121.348 724.394 121.079 724.385 120.737ZM729.854 128.366C730.068 128.371 730.252 128.332 730.407 128.25C730.562 128.163 730.685 128.045 730.776 127.895C730.872 127.74 730.934 127.562 730.961 127.361L733.073 127.354C733.046 127.938 732.875 128.439 732.561 128.858C732.251 129.278 731.852 129.599 731.364 129.822C730.877 130.046 730.353 130.15 729.792 130.137C729.254 130.128 728.792 130.023 728.404 129.822C728.017 129.617 727.702 129.344 727.461 129.002C727.219 128.656 727.049 128.259 726.948 127.812C726.853 127.366 726.827 126.894 726.873 126.397L726.894 126.233C726.948 125.714 727.071 125.224 727.263 124.764C727.459 124.303 727.718 123.9 728.042 123.554C728.366 123.203 728.748 122.932 729.19 122.74C729.637 122.544 730.138 122.453 730.694 122.467C731.287 122.476 731.79 122.608 732.205 122.863C732.624 123.118 732.941 123.467 733.155 123.909C733.369 124.351 733.47 124.862 733.456 125.44L731.344 125.434C731.353 125.238 731.335 125.051 731.289 124.873C731.248 124.691 731.166 124.543 731.043 124.429C730.92 124.31 730.742 124.246 730.51 124.237C730.241 124.228 730.022 124.287 729.854 124.415C729.685 124.543 729.55 124.711 729.45 124.921C729.354 125.126 729.284 125.347 729.238 125.584C729.193 125.816 729.159 126.035 729.136 126.24L729.129 126.397C729.111 126.562 729.092 126.755 729.074 126.979C729.061 127.197 729.067 127.411 729.095 127.621C729.127 127.831 729.2 128.006 729.313 128.147C729.427 128.284 729.607 128.357 729.854 128.366ZM737.243 130.137C736.733 130.128 736.268 130.034 735.849 129.856C735.429 129.674 735.074 129.424 734.782 129.104C734.491 128.785 734.274 128.412 734.133 127.983C733.996 127.55 733.946 127.079 733.982 126.568L734.01 126.302C734.064 125.764 734.192 125.263 734.393 124.798C734.593 124.328 734.862 123.918 735.199 123.567C735.536 123.212 735.933 122.936 736.389 122.74C736.849 122.544 737.364 122.453 737.934 122.467C738.449 122.476 738.893 122.578 739.267 122.774C739.645 122.97 739.952 123.237 740.189 123.574C740.426 123.907 740.59 124.29 740.682 124.723C740.777 125.151 740.8 125.607 740.75 126.09L740.62 127.026H734.741L734.974 125.584L738.597 125.591L738.638 125.393C738.67 125.178 738.66 124.985 738.61 124.812C738.56 124.638 738.467 124.502 738.33 124.401C738.193 124.297 738.009 124.24 737.776 124.23C737.494 124.226 737.259 124.287 737.072 124.415C736.89 124.543 736.742 124.711 736.628 124.921C736.519 125.131 736.434 125.358 736.375 125.604C736.316 125.846 736.272 126.078 736.245 126.302L736.218 126.562C736.2 126.785 736.206 127.001 736.238 127.211C736.27 127.421 736.334 127.61 736.43 127.778C736.53 127.947 736.664 128.084 736.833 128.188C737.002 128.289 737.214 128.343 737.469 128.353C737.811 128.362 738.13 128.298 738.426 128.161C738.722 128.024 738.989 127.838 739.226 127.601L740.162 128.845C739.957 129.155 739.693 129.405 739.369 129.597C739.046 129.784 738.697 129.92 738.323 130.007C737.954 130.098 737.594 130.141 737.243 130.137ZM745.166 127.881C745.202 127.689 745.146 127.544 744.995 127.443C744.849 127.339 744.674 127.261 744.469 127.211C744.268 127.156 744.106 127.113 743.983 127.081C743.705 127.008 743.43 126.915 743.156 126.801C742.883 126.682 742.634 126.536 742.411 126.363C742.192 126.186 742.017 125.974 741.885 125.728C741.757 125.477 741.7 125.185 741.714 124.853C741.728 124.442 741.83 124.087 742.021 123.786C742.217 123.485 742.47 123.237 742.78 123.041C743.09 122.84 743.427 122.692 743.792 122.597C744.161 122.501 744.528 122.458 744.893 122.467C745.394 122.471 745.866 122.56 746.308 122.733C746.754 122.907 747.117 123.171 747.395 123.526C747.677 123.882 747.821 124.333 747.825 124.88L745.59 124.873C745.594 124.695 745.572 124.54 745.521 124.408C745.476 124.276 745.396 124.176 745.282 124.107C745.168 124.035 745.013 123.998 744.817 123.998C744.672 123.998 744.528 124.028 744.387 124.087C744.245 124.146 744.122 124.23 744.018 124.34C743.917 124.449 743.854 124.581 743.826 124.736C743.799 124.868 743.817 124.98 743.881 125.071C743.945 125.158 744.031 125.229 744.141 125.283C744.25 125.338 744.364 125.383 744.482 125.42C744.605 125.452 744.715 125.477 744.811 125.495C745.225 125.595 745.626 125.73 746.014 125.898C746.406 126.062 746.725 126.297 746.971 126.603C747.221 126.903 747.34 127.304 747.326 127.806C747.312 128.229 747.199 128.592 746.984 128.893C746.77 129.189 746.494 129.43 746.157 129.617C745.825 129.799 745.465 129.932 745.077 130.014C744.694 130.1 744.323 130.141 743.963 130.137C743.462 130.128 742.988 130.027 742.541 129.836C742.094 129.64 741.73 129.357 741.447 128.988C741.169 128.615 741.023 128.157 741.01 127.614L743.088 127.621C743.092 127.835 743.131 128.015 743.204 128.161C743.282 128.302 743.393 128.412 743.539 128.489C743.685 128.562 743.865 128.599 744.079 128.599C744.239 128.599 744.394 128.576 744.544 128.53C744.699 128.48 744.831 128.403 744.94 128.298C745.054 128.188 745.13 128.049 745.166 127.881Z" fill="white"/>
<path d="M784.088 120.047L782.358 130H780.021L781.743 120.047H784.088ZM787.123 124.189L786.802 126.035H782.372L782.693 124.189H787.123ZM788.217 120.047L787.896 121.899H783.083L783.411 120.047H788.217ZM790.849 130.137C790.338 130.128 789.873 130.034 789.454 129.856C789.035 129.674 788.679 129.424 788.388 129.104C788.096 128.785 787.88 128.412 787.738 127.983C787.602 127.55 787.551 127.079 787.588 126.568L787.615 126.302C787.67 125.764 787.798 125.263 787.998 124.798C788.199 124.328 788.467 123.918 788.805 123.567C789.142 123.212 789.538 122.936 789.994 122.74C790.454 122.544 790.969 122.453 791.539 122.467C792.054 122.476 792.498 122.578 792.872 122.774C793.25 122.97 793.558 123.237 793.795 123.574C794.032 123.907 794.196 124.29 794.287 124.723C794.383 125.151 794.406 125.607 794.355 126.09L794.226 127.026H788.347L788.579 125.584L792.202 125.591L792.243 125.393C792.275 125.178 792.266 124.985 792.216 124.812C792.166 124.638 792.072 124.502 791.936 124.401C791.799 124.297 791.614 124.24 791.382 124.23C791.099 124.226 790.865 124.287 790.678 124.415C790.495 124.543 790.347 124.711 790.233 124.921C790.124 125.131 790.04 125.358 789.98 125.604C789.921 125.846 789.878 126.078 789.851 126.302L789.823 126.562C789.805 126.785 789.812 127.001 789.844 127.211C789.876 127.421 789.939 127.61 790.035 127.778C790.135 127.947 790.27 128.084 790.438 128.188C790.607 128.289 790.819 128.343 791.074 128.353C791.416 128.362 791.735 128.298 792.031 128.161C792.327 128.024 792.594 127.838 792.831 127.601L793.768 128.845C793.562 129.155 793.298 129.405 792.975 129.597C792.651 129.784 792.302 129.92 791.929 130.007C791.56 130.098 791.2 130.141 790.849 130.137ZM798.662 128.141L799.141 125.064C799.159 124.9 799.157 124.743 799.134 124.593C799.116 124.442 799.059 124.319 798.963 124.224C798.872 124.123 798.728 124.071 798.532 124.066C798.354 124.062 798.204 124.094 798.081 124.162C797.958 124.23 797.86 124.326 797.787 124.449C797.714 124.572 797.662 124.714 797.63 124.873L795.374 124.887C795.392 124.458 795.506 124.089 795.716 123.779C795.925 123.469 796.194 123.216 796.522 123.021C796.851 122.825 797.208 122.681 797.596 122.59C797.988 122.499 798.373 122.458 798.751 122.467C799.271 122.476 799.74 122.585 800.159 122.795C800.583 123 800.909 123.299 801.137 123.69C801.369 124.078 801.458 124.549 801.403 125.105L800.918 128.141C800.877 128.414 800.84 128.706 800.809 129.016C800.777 129.321 800.822 129.606 800.945 129.87L800.938 130L798.744 130.007C798.644 129.711 798.594 129.403 798.594 129.084C798.594 128.765 798.617 128.451 798.662 128.141ZM799.394 125.481L799.188 126.712L798.307 126.705C798.133 126.71 797.967 126.739 797.808 126.794C797.653 126.844 797.514 126.917 797.391 127.013C797.268 127.108 797.165 127.227 797.083 127.368C797.006 127.509 796.955 127.671 796.933 127.854C796.914 127.977 796.924 128.088 796.96 128.188C797.001 128.284 797.062 128.362 797.145 128.421C797.231 128.48 797.338 128.512 797.466 128.517C797.662 128.521 797.851 128.485 798.033 128.407C798.215 128.33 798.373 128.22 798.505 128.079C798.642 127.938 798.735 127.774 798.785 127.587L799.182 128.551C799.063 128.788 798.926 129.004 798.771 129.2C798.621 129.396 798.45 129.567 798.259 129.713C798.072 129.854 797.862 129.964 797.63 130.041C797.397 130.118 797.14 130.155 796.857 130.15C796.452 130.141 796.078 130.043 795.736 129.856C795.395 129.67 795.123 129.414 794.923 129.091C794.722 128.767 794.629 128.394 794.643 127.97C794.661 127.478 794.782 127.07 795.005 126.746C795.228 126.423 795.518 126.17 795.873 125.987C796.233 125.8 796.623 125.668 797.042 125.591C797.466 125.513 797.885 125.475 798.3 125.475L799.394 125.481ZM806.893 122.604L806.612 124.203H802.278L802.559 122.604H806.893ZM803.782 120.765H806.031L804.855 127.601C804.837 127.76 804.837 127.892 804.855 127.997C804.874 128.097 804.922 128.175 804.999 128.229C805.081 128.28 805.206 128.309 805.375 128.318C805.471 128.323 805.566 128.321 805.662 128.312C805.758 128.302 805.854 128.293 805.949 128.284L805.792 129.952C805.596 130.016 805.396 130.062 805.19 130.089C804.99 130.116 804.785 130.13 804.575 130.13C804.11 130.121 803.721 130.027 803.406 129.85C803.096 129.667 802.871 129.41 802.729 129.077C802.593 128.74 802.545 128.339 802.586 127.874L803.782 120.765ZM811.015 128.086L811.965 122.604H814.221L812.936 130H810.837L811.015 128.086ZM811.438 126.691L812.02 126.678C811.974 127.097 811.883 127.514 811.746 127.929C811.609 128.343 811.42 128.719 811.179 129.057C810.937 129.394 810.636 129.663 810.276 129.863C809.921 130.059 809.499 130.153 809.012 130.144C808.606 130.134 808.262 130.057 807.979 129.911C807.701 129.765 807.478 129.567 807.31 129.316C807.141 129.061 807.027 128.77 806.968 128.441C806.909 128.113 806.897 127.762 806.934 127.389L807.733 122.604H809.982L809.169 127.416C809.155 127.548 809.155 127.671 809.169 127.785C809.187 127.899 809.221 127.999 809.271 128.086C809.326 128.168 809.401 128.234 809.497 128.284C809.593 128.334 809.716 128.362 809.866 128.366C810.208 128.38 810.486 128.309 810.7 128.154C810.914 127.995 811.078 127.785 811.192 127.525C811.311 127.266 811.393 126.988 811.438 126.691ZM817.372 124.559L816.429 130H814.18L815.465 122.604H817.557L817.372 124.559ZM819.792 122.542L819.498 124.688C819.38 124.67 819.261 124.654 819.143 124.641C819.024 124.627 818.903 124.618 818.78 124.613C818.53 124.609 818.302 124.638 818.097 124.702C817.896 124.761 817.721 124.855 817.57 124.982C817.424 125.105 817.304 125.26 817.208 125.447C817.112 125.634 817.042 125.851 816.996 126.097L816.62 125.823C816.666 125.477 816.739 125.11 816.839 124.723C816.944 124.331 817.09 123.962 817.276 123.615C817.463 123.269 817.705 122.989 818.001 122.774C818.297 122.556 818.662 122.446 819.095 122.446C819.213 122.446 819.329 122.455 819.443 122.474C819.557 122.492 819.674 122.515 819.792 122.542ZM822.841 130.137C822.33 130.128 821.866 130.034 821.446 129.856C821.027 129.674 820.672 129.424 820.38 129.104C820.088 128.785 819.872 128.412 819.73 127.983C819.594 127.55 819.544 127.079 819.58 126.568L819.607 126.302C819.662 125.764 819.79 125.263 819.99 124.798C820.191 124.328 820.46 123.918 820.797 123.567C821.134 123.212 821.531 122.936 821.986 122.74C822.447 122.544 822.962 122.453 823.531 122.467C824.046 122.476 824.491 122.578 824.864 122.774C825.243 122.97 825.55 123.237 825.787 123.574C826.024 123.907 826.188 124.29 826.279 124.723C826.375 125.151 826.398 125.607 826.348 126.09L826.218 127.026H820.339L820.571 125.584L824.194 125.591L824.235 125.393C824.267 125.178 824.258 124.985 824.208 124.812C824.158 124.638 824.064 124.502 823.928 124.401C823.791 124.297 823.606 124.24 823.374 124.23C823.091 124.226 822.857 124.287 822.67 124.415C822.488 124.543 822.34 124.711 822.226 124.921C822.116 125.131 822.032 125.358 821.973 125.604C821.913 125.846 821.87 126.078 821.843 126.302L821.815 126.562C821.797 126.785 821.804 127.001 821.836 127.211C821.868 127.421 821.932 127.61 822.027 127.778C822.128 127.947 822.262 128.084 822.431 128.188C822.599 128.289 822.811 128.343 823.066 128.353C823.408 128.362 823.727 128.298 824.023 128.161C824.32 128.024 824.586 127.838 824.823 127.601L825.76 128.845C825.555 129.155 825.29 129.405 824.967 129.597C824.643 129.784 824.295 129.92 823.921 130.007C823.552 130.098 823.192 130.141 822.841 130.137ZM830.764 127.881C830.8 127.689 830.743 127.544 830.593 127.443C830.447 127.339 830.271 127.261 830.066 127.211C829.866 127.156 829.704 127.113 829.581 127.081C829.303 127.008 829.027 126.915 828.754 126.801C828.48 126.682 828.232 126.536 828.009 126.363C827.79 126.186 827.615 125.974 827.482 125.728C827.355 125.477 827.298 125.185 827.312 124.853C827.325 124.442 827.428 124.087 827.619 123.786C827.815 123.485 828.068 123.237 828.378 123.041C828.688 122.84 829.025 122.692 829.39 122.597C829.759 122.501 830.126 122.458 830.49 122.467C830.992 122.471 831.463 122.56 831.905 122.733C832.352 122.907 832.714 123.171 832.992 123.526C833.275 123.882 833.418 124.333 833.423 124.88L831.188 124.873C831.192 124.695 831.169 124.54 831.119 124.408C831.074 124.276 830.994 124.176 830.88 124.107C830.766 124.035 830.611 123.998 830.415 123.998C830.269 123.998 830.126 124.028 829.984 124.087C829.843 124.146 829.72 124.23 829.615 124.34C829.515 124.449 829.451 124.581 829.424 124.736C829.396 124.868 829.415 124.98 829.479 125.071C829.542 125.158 829.629 125.229 829.738 125.283C829.848 125.338 829.962 125.383 830.08 125.42C830.203 125.452 830.312 125.477 830.408 125.495C830.823 125.595 831.224 125.73 831.611 125.898C832.003 126.062 832.322 126.297 832.568 126.603C832.819 126.903 832.938 127.304 832.924 127.806C832.91 128.229 832.796 128.592 832.582 128.893C832.368 129.189 832.092 129.43 831.755 129.617C831.422 129.799 831.062 129.932 830.675 130.014C830.292 130.1 829.921 130.141 829.561 130.137C829.059 130.128 828.585 130.027 828.139 129.836C827.692 129.64 827.327 129.357 827.045 128.988C826.767 128.615 826.621 128.157 826.607 127.614L828.686 127.621C828.69 127.835 828.729 128.015 828.802 128.161C828.879 128.302 828.991 128.412 829.137 128.489C829.283 128.562 829.463 128.599 829.677 128.599C829.836 128.599 829.991 128.576 830.142 128.53C830.297 128.48 830.429 128.403 830.538 128.298C830.652 128.188 830.727 128.049 830.764 127.881Z" fill="white"/>
<g clip-path="url(#clip0_2_1366)">
<path d="M779.004 276.957C776.732 276.957 774.9 278.761 774.9 280.997C774.9 283.232 776.732 285.036 779.004 285.036C781.275 285.036 783.107 283.232 783.107 280.997C783.107 278.761 781.275 276.957 779.004 276.957ZM779.004 283.623C777.536 283.623 776.336 282.445 776.336 280.997C776.336 279.548 777.532 278.37 779.004 278.37C780.475 278.37 781.672 279.548 781.672 280.997C781.672 282.445 780.472 283.623 779.004 283.623ZM784.232 276.792C784.232 277.316 783.804 277.734 783.275 277.734C782.743 277.734 782.318 277.312 782.318 276.792C782.318 276.272 782.747 275.85 783.275 275.85C783.804 275.85 784.232 276.272 784.232 276.792ZM786.95 277.748C786.889 276.486 786.597 275.368 785.657 274.447C784.722 273.526 783.586 273.238 782.304 273.174C780.982 273.1 777.022 273.1 775.7 273.174C774.422 273.234 773.286 273.522 772.347 274.443C771.407 275.365 771.118 276.482 771.054 277.745C770.979 279.045 770.979 282.944 771.054 284.245C771.114 285.507 771.407 286.625 772.347 287.546C773.286 288.467 774.418 288.756 775.7 288.819C777.022 288.893 780.982 288.893 782.304 288.819C783.586 288.759 784.722 288.471 785.657 287.546C786.593 286.625 786.886 285.507 786.95 284.245C787.025 282.944 787.025 279.049 786.95 277.748ZM785.243 285.641C784.964 286.33 784.425 286.861 783.722 287.138C782.668 287.55 780.168 287.455 779.004 287.455C777.839 287.455 775.336 287.546 774.286 287.138C773.586 286.864 773.047 286.333 772.764 285.641C772.347 284.604 772.443 282.143 772.443 280.997C772.443 279.85 772.35 277.386 772.764 276.352C773.043 275.663 773.582 275.132 774.286 274.855C775.339 274.443 777.839 274.538 779.004 274.538C780.168 274.538 782.672 274.447 783.722 274.855C784.422 275.129 784.961 275.66 785.243 276.352C785.661 277.389 785.564 279.85 785.564 280.997C785.564 282.143 785.661 284.607 785.243 285.641Z" fill="white"/>
</g>
<g clip-path="url(#clip1_2_1366)">
<path d="M735.633 288V277.879H732.203V288H735.633ZM733.918 276.497C735.114 276.497 735.859 275.72 735.859 274.749C735.837 273.755 735.114 273 733.941 273C732.767 273 732 273.755 732 274.749C732 275.72 732.745 276.497 733.896 276.497H733.918H733.918ZM737.531 288H740.962V282.348C740.962 282.046 740.984 281.743 741.075 281.527C741.323 280.923 741.887 280.297 742.835 280.297C744.076 280.297 744.573 281.225 744.573 282.586V288H748.003V282.197C748.003 279.088 746.31 277.642 744.053 277.642C742.203 277.642 741.39 278.656 740.939 279.347H740.962V277.879H737.532C737.577 278.829 737.532 288 737.532 288L737.531 288Z" fill="white"/>
</g>
<g clip-path="url(#clip2_2_1366)">
<path d="M709 275.705C708.326 275.989 707.611 276.176 706.879 276.259C707.641 275.823 708.227 275.134 708.503 274.312C707.778 274.722 706.985 275.011 706.158 275.166C705.484 274.482 704.524 274.055 703.462 274.055C701.422 274.055 699.769 275.63 699.769 277.573C699.769 277.849 699.802 278.117 699.865 278.375C696.795 278.228 694.074 276.828 692.253 274.699C691.935 275.219 691.753 275.823 691.753 276.468C691.753 277.688 692.405 278.765 693.396 279.396C692.809 279.379 692.236 279.228 691.723 278.956C691.723 278.971 691.723 278.985 691.723 279C691.723 280.705 692.996 282.127 694.685 282.45C694.141 282.591 693.571 282.612 693.017 282.51C693.487 283.908 694.851 284.925 696.467 284.954C695.203 285.897 693.611 286.46 691.881 286.46C691.583 286.46 691.289 286.443 691 286.41C692.634 287.409 694.575 287.991 696.661 287.991C703.453 287.991 707.168 282.63 707.168 277.981C707.168 277.829 707.164 277.677 707.157 277.526C707.88 277.028 708.504 276.411 709 275.705Z" fill="white"/>
</g>
<g clip-path="url(#clip3_2_1366)">
<path d="M658.787 288V281.431H657V279.066H658.787V277.045C658.787 275.458 659.842 274 662.274 274C663.259 274 663.987 274.092 663.987 274.092L663.93 276.3C663.93 276.3 663.187 276.293 662.377 276.293C661.5 276.293 661.359 276.686 661.359 277.339V279.066H664L663.885 281.431H661.359V288H658.787Z" fill="white"/>
</g>
<path d="M0 257H535C563.719 257 587 280.281 587 309H0V257Z" fill="#150043"/>
<path d="M1440 257H905C876.281 257 853 280.281 853 309H1440V257Z" fill="#150043"/>
<g clip-path="url(#clip4_2_1366)">
<path d="M661.275 67.4895C661.253 67.516 661.23 67.5424 661.204 67.5689C659.765 69.1936 657.642 70.1987 655.294 70.142C651.253 70.04 647.964 66.764 647.85 62.721C647.729 58.406 651.2 54.8542 655.49 54.8542C657.616 54.8542 659.542 55.727 660.932 57.1364C660.958 57.1629 660.981 57.1855 661.007 57.212L664.451 53.766L665.848 52.3679C665.822 52.3415 665.799 52.315 665.773 52.2924C663.148 49.6436 659.508 48 655.494 48C646.529 48 639.44 56.1842 641.298 65.4756C642.443 71.2076 646.989 75.6775 652.733 76.7431C657.967 77.7141 662.835 75.8476 666.052 72.4205C666.079 72.394 666.101 72.3676 666.124 72.3411L661.275 67.4895Z" fill="white"/>
<path d="M666.362 65.6834C668.26 65.6834 669.799 64.144 669.799 62.245C669.799 60.346 668.26 58.8065 666.362 58.8065C664.464 58.8065 662.926 60.346 662.926 62.245C662.926 64.144 664.464 65.6834 666.362 65.6834Z" fill="white"/>
<path d="M686.698 71.9255C685.357 71.9255 684.103 71.6912 682.944 71.2265C681.781 70.7579 680.773 70.1042 679.915 69.2654C679.058 68.4266 678.382 67.4328 677.891 66.2842C677.4 65.1393 677.151 63.8773 677.151 62.5019C677.151 61.1265 677.397 59.8645 677.891 58.7196C678.382 57.5747 679.058 56.581 679.915 55.7384C680.773 54.8995 681.781 54.2459 682.944 53.7773C684.107 53.3088 685.357 53.0783 686.698 53.0783C687.615 53.0783 688.446 53.1728 689.194 53.3579C689.942 53.5468 690.61 53.7924 691.207 54.0985C691.8 54.4046 692.321 54.7522 692.774 55.1414C693.223 55.5306 693.609 55.9311 693.933 56.3392C694.696 57.2913 695.259 58.3682 695.614 59.5736H692.687C692.381 58.8934 691.958 58.2813 691.414 57.741C690.958 57.2838 690.346 56.8568 689.583 56.4676C688.82 56.0784 687.861 55.882 686.705 55.882C685.754 55.882 684.881 56.0444 684.085 56.3656C683.288 56.6868 682.6 57.1402 682.023 57.7145C681.445 58.2926 680.999 58.9879 680.686 59.804C680.372 60.6202 680.214 61.5195 680.214 62.5057C680.214 63.4919 680.372 64.3911 680.686 65.2073C680.999 66.0235 681.445 66.7187 682.023 67.2968C682.6 67.8749 683.288 68.3246 684.085 68.6457C684.881 68.9669 685.757 69.1294 686.705 69.1294C687.876 69.1294 688.854 68.9178 689.632 68.4908C690.414 68.0676 691.041 67.5991 691.516 67.089C692.075 66.4958 692.51 65.8156 692.815 65.0524H695.742C695.319 66.3446 694.7 67.4895 693.884 68.4908C693.544 68.9329 693.144 69.3561 692.687 69.7642C692.23 70.1722 691.705 70.5388 691.12 70.8599C690.535 71.1811 689.874 71.4418 689.134 71.6383C688.393 71.8348 687.585 71.933 686.702 71.933L686.698 71.9255Z" fill="white"/>
<path d="M704.137 71.6723C703.185 71.6723 702.298 71.4985 701.475 71.1509C700.651 70.8033 699.938 70.3272 699.337 69.7226C698.733 69.1218 698.261 68.4077 697.91 67.584C697.562 66.7603 697.389 65.8723 697.389 64.9202C697.389 63.968 697.562 63.0838 697.91 62.2563C698.257 61.4326 698.733 60.7185 699.337 60.1177C699.938 59.5169 700.651 59.0408 701.475 58.6894C702.298 58.3418 703.185 58.168 704.137 58.168C705.089 58.168 705.972 58.3418 706.799 58.6894C707.623 59.037 708.336 59.5131 708.937 60.1177C709.537 60.7222 710.013 61.4326 710.364 62.2563C710.712 63.08 710.885 63.968 710.885 64.9202C710.885 65.8723 710.712 66.7603 710.364 67.584C710.017 68.4077 709.541 69.1218 708.937 69.7226C708.333 70.3272 707.623 70.7995 706.799 71.1509C705.976 71.4985 705.089 71.6723 704.137 71.6723ZM704.137 69.2503C704.715 69.2503 705.243 69.1483 705.727 68.9443C706.21 68.7402 706.626 68.4531 706.973 68.079C707.32 67.7049 707.592 67.2515 707.789 66.7149C707.985 66.1784 708.083 65.5814 708.083 64.9202C708.083 64.2589 707.985 63.6581 707.789 63.1254C707.592 62.5888 707.32 62.1354 706.973 61.7613C706.626 61.3873 706.21 61.1001 705.727 60.896C705.243 60.692 704.711 60.59 704.137 60.59C703.563 60.59 703.031 60.692 702.547 60.896C702.064 61.1001 701.648 61.3873 701.301 61.7613C700.954 62.1354 700.682 62.5888 700.485 63.1254C700.289 63.6619 700.191 64.2589 700.191 64.9202C700.191 65.5814 700.289 66.1822 700.485 66.7149C700.682 67.2515 700.954 67.7049 701.301 68.079C701.648 68.4531 702.064 68.7402 702.547 68.9443C703.031 69.1483 703.563 69.2503 704.137 69.2503Z" fill="white"/>
<path d="M712.668 58.4249H715.341V60.2084H715.47C715.708 59.8343 716.021 59.4942 716.41 59.1882C716.75 58.935 717.169 58.7007 717.671 58.4891C718.174 58.2776 718.797 58.1718 719.545 58.1718C721.138 58.1718 722.388 58.6365 723.287 59.5585C724.186 60.4842 724.635 61.8482 724.635 63.6468V71.4154H721.961V63.9C721.961 62.7437 721.708 61.9049 721.199 61.3797C720.689 60.8545 719.926 60.59 718.906 60.59C718.397 60.59 717.925 60.6845 717.494 60.8696C717.06 61.0585 716.682 61.3155 716.361 61.648C716.04 61.9805 715.787 62.3772 715.61 62.8458C715.432 63.3143 715.341 63.8357 715.341 64.4138V71.4192H712.668V58.4249Z" fill="white"/>
<path d="M726.546 58.4249H729.22V60.2084H729.348C729.586 59.8343 729.899 59.4942 730.288 59.1882C730.628 58.935 731.047 58.7007 731.55 58.4891C732.052 58.2776 732.675 58.1718 733.423 58.1718C735.016 58.1718 736.266 58.6365 737.165 59.5585C738.064 60.4842 738.513 61.8482 738.513 63.6468V71.4154H735.84V63.9C735.84 62.7437 735.587 61.9049 735.077 61.3797C734.567 60.8545 733.804 60.59 732.785 60.59C732.275 60.59 731.803 60.6845 731.372 60.8696C730.938 61.0585 730.56 61.3155 730.239 61.648C729.918 61.9805 729.665 62.3772 729.488 62.8458C729.31 63.3143 729.22 63.8357 729.22 64.4138V71.4192H726.546V58.4249Z" fill="white"/>
<path d="M746.787 71.6723C745.87 71.6723 745.009 71.4985 744.204 71.1509C743.396 70.8033 742.694 70.3272 742.089 69.7226C741.485 69.1218 741.017 68.4077 740.677 67.584C740.337 66.7603 740.167 65.8723 740.167 64.9202C740.167 63.968 740.337 63.0838 740.677 62.2563C741.017 61.4326 741.489 60.7185 742.089 60.1177C742.69 59.5169 743.396 59.0408 744.204 58.6894C745.009 58.3418 745.873 58.168 746.787 58.168C747.701 58.168 748.566 58.3418 749.37 58.6894C750.175 59.037 750.881 59.5131 751.485 60.1177C752.085 60.7222 752.558 61.4326 752.897 62.2563C753.237 63.08 753.407 63.968 753.407 64.9202V65.8119H742.841C742.943 66.356 743.113 66.8396 743.351 67.2628C743.589 67.686 743.887 68.0487 744.242 68.3473C744.597 68.6458 744.993 68.8687 745.428 69.0236C745.862 69.1747 746.315 69.2541 746.791 69.2541C747.452 69.2541 748.022 69.1634 748.498 68.9858C748.974 68.8082 749.355 68.6004 749.642 68.3624C749.982 68.1092 750.262 67.8107 750.484 67.4706H753.286C752.965 68.2679 752.512 68.9745 751.938 69.5866C751.685 69.8398 751.394 70.0967 751.073 70.3499C750.752 70.603 750.379 70.8297 749.952 71.0262C749.529 71.2227 749.053 71.3776 748.524 71.4985C747.999 71.6157 747.422 71.6761 746.795 71.6761L746.787 71.6723ZM750.605 63.6468C750.537 63.2727 750.409 62.8987 750.224 62.5246C750.035 62.1505 749.782 61.8256 749.461 61.5422C749.14 61.2626 748.755 61.0321 748.317 60.8545C747.875 60.6769 747.365 60.5862 746.787 60.5862C746.345 60.5862 745.919 60.6542 745.503 60.7902C745.088 60.9263 744.706 61.1265 744.359 61.3873C744.012 61.6517 743.717 61.9729 743.479 62.3545C743.241 62.7362 743.071 63.1669 742.969 63.6392H750.609L750.605 63.6468Z" fill="white"/>
<path d="M761.428 71.6723C760.511 71.6723 759.653 71.5061 758.857 71.1774C758.06 70.8449 757.372 70.3801 756.795 69.7755C756.217 69.1748 755.764 68.4606 755.431 67.6369C755.099 66.8132 754.937 65.9101 754.937 64.9239C754.937 63.9378 755.103 63.0347 755.431 62.211C755.764 61.3873 756.217 60.6731 756.795 60.0723C757.372 59.4716 758.06 59.003 758.857 58.6705C759.653 58.338 760.511 58.1755 761.428 58.1755C762.074 58.1755 762.659 58.2435 763.184 58.3796C763.709 58.5156 764.181 58.6932 764.597 58.9161C765.012 59.1353 765.375 59.3922 765.68 59.6794C765.986 59.9665 766.258 60.2575 766.496 60.5447C767.04 61.2248 767.429 62.0069 767.667 62.8873H764.865C764.729 62.4641 764.51 62.0825 764.204 61.7424C763.951 61.4553 763.6 61.1908 763.162 60.9527C762.72 60.7147 762.142 60.5976 761.432 60.5976C760.922 60.5976 760.443 60.6996 759.993 60.9036C759.544 61.1077 759.155 61.3948 758.823 61.7689C758.49 62.143 758.23 62.5964 758.033 63.1329C757.837 63.6695 757.739 64.2665 757.739 64.9277C757.739 65.589 757.837 66.1897 758.033 66.7225C758.23 67.2591 758.49 67.7125 758.823 68.0865C759.155 68.4606 759.544 68.7478 759.993 68.9518C760.443 69.1559 760.922 69.2579 761.432 69.2579C762.161 69.2579 762.757 69.1407 763.214 68.9027C763.671 68.6647 764.038 68.4002 764.31 68.113C764.615 67.7918 764.846 67.4102 764.997 66.9681H767.671C767.433 67.8674 767.044 68.6571 766.5 69.3372C766.262 69.6244 765.99 69.9116 765.684 70.1912C765.378 70.4708 765.02 70.7239 764.6 70.9431C764.185 71.1622 763.713 71.3436 763.188 71.4796C762.663 71.6157 762.078 71.6837 761.432 71.6837L761.428 71.6723Z" fill="white"/>
<path d="M770.337 60.8431H768.807V58.4211H770.337V55.6174H773.01V58.4211H776.957V60.8431H773.01V68.9971H777.085V71.4191H770.337V60.8469V60.8431Z" fill="white"/>
<path d="M780.14 53.5847H783.067V71.4192H780.14V53.5847Z" fill="white"/>
<path d="M785.106 53.5847H789.305L797.07 67.7238H797.323L797.07 65.5587V53.5847H799.996V71.4192H795.797L788.033 57.28H787.78L788.033 59.4451V71.4192H785.106V53.5847Z" fill="white"/>
</g>
<path d="M589.402 190.72V187.99H586.77V186.982H589.402V184.28H590.41V186.982H593.07V187.99H590.41V190.72H589.402ZM597.292 191.14C597.012 191.14 596.713 191.126 596.396 191.098C596.079 191.07 595.775 191.037 595.486 191C595.197 190.963 594.949 190.925 594.744 190.888L594.856 189.978C595.043 189.997 595.271 190.02 595.542 190.048C595.813 190.076 596.102 190.099 596.41 190.118C596.718 190.137 597.012 190.146 597.292 190.146C598.123 190.146 598.743 189.889 599.154 189.376C599.574 188.853 599.789 188.055 599.798 186.982C599.565 187.066 599.308 187.15 599.028 187.234C598.748 187.318 598.468 187.388 598.188 187.444C597.917 187.491 597.665 187.514 597.432 187.514C596.461 187.514 595.715 187.285 595.192 186.828C594.669 186.371 594.408 185.657 594.408 184.686C594.408 184.051 594.539 183.505 594.8 183.048C595.061 182.591 595.43 182.241 595.906 181.998C596.391 181.746 596.961 181.62 597.614 181.62C598.398 181.62 599.033 181.816 599.518 182.208C600.013 182.591 600.377 183.141 600.61 183.86C600.843 184.579 600.96 185.428 600.96 186.408C600.96 187.304 600.876 188.055 600.708 188.662C600.54 189.269 600.297 189.754 599.98 190.118C599.672 190.482 599.289 190.743 598.832 190.902C598.384 191.061 597.871 191.14 597.292 191.14ZM597.53 186.52C597.763 186.52 598.02 186.492 598.3 186.436C598.58 186.38 598.855 186.315 599.126 186.24C599.397 186.156 599.625 186.081 599.812 186.016C599.803 185.353 599.723 184.77 599.574 184.266C599.434 183.753 599.205 183.351 598.888 183.062C598.571 182.763 598.146 182.614 597.614 182.614C596.979 182.614 596.475 182.801 596.102 183.174C595.738 183.547 595.556 184.051 595.556 184.686C595.556 185.321 595.724 185.787 596.06 186.086C596.396 186.375 596.886 186.52 597.53 186.52ZM605.672 191.14C604.907 191.14 604.277 190.949 603.782 190.566C603.297 190.183 602.937 189.633 602.704 188.914C602.471 188.195 602.354 187.337 602.354 186.338C602.354 185.498 602.438 184.779 602.606 184.182C602.774 183.585 603.017 183.099 603.334 182.726C603.651 182.343 604.034 182.063 604.482 181.886C604.93 181.709 605.429 181.62 605.98 181.62C606.269 181.62 606.573 181.634 606.89 181.662C607.207 181.69 607.511 181.723 607.8 181.76C608.089 181.797 608.332 181.835 608.528 181.872L608.416 182.768C608.239 182.749 608.01 182.731 607.73 182.712C607.459 182.684 607.17 182.661 606.862 182.642C606.563 182.623 606.269 182.614 605.98 182.614C605.187 182.614 604.58 182.885 604.16 183.426C603.74 183.967 603.525 184.742 603.516 185.75C603.6 185.731 603.721 185.694 603.88 185.638C604.048 185.582 604.239 185.521 604.454 185.456C604.678 185.391 604.907 185.335 605.14 185.288C605.373 185.241 605.597 185.218 605.812 185.218C606.829 185.218 607.599 185.451 608.122 185.918C608.645 186.385 608.906 187.108 608.906 188.088C608.906 188.741 608.78 189.297 608.528 189.754C608.276 190.211 607.907 190.557 607.422 190.79C606.946 191.023 606.363 191.14 605.672 191.14ZM605.672 190.146C606.344 190.146 606.857 189.969 607.212 189.614C607.576 189.259 607.758 188.751 607.758 188.088C607.758 187.453 607.576 186.982 607.212 186.674C606.857 186.366 606.363 186.212 605.728 186.212C605.476 186.212 605.21 186.24 604.93 186.296C604.65 186.352 604.384 186.422 604.132 186.506C603.88 186.581 603.67 186.655 603.502 186.73C603.511 187.374 603.586 187.957 603.726 188.48C603.866 188.993 604.095 189.399 604.412 189.698C604.729 189.997 605.149 190.146 605.672 190.146ZM613.506 191.14C612.741 191.14 612.111 190.949 611.616 190.566C611.131 190.183 610.771 189.633 610.538 188.914C610.305 188.195 610.188 187.337 610.188 186.338C610.188 185.498 610.272 184.779 610.44 184.182C610.608 183.585 610.851 183.099 611.168 182.726C611.485 182.343 611.868 182.063 612.316 181.886C612.764 181.709 613.263 181.62 613.814 181.62C614.103 181.62 614.407 181.634 614.724 181.662C615.041 181.69 615.345 181.723 615.634 181.76C615.923 181.797 616.166 181.835 616.362 181.872L616.25 182.768C616.073 182.749 615.844 182.731 615.564 182.712C615.293 182.684 615.004 182.661 614.696 182.642C614.397 182.623 614.103 182.614 613.814 182.614C613.021 182.614 612.414 182.885 611.994 183.426C611.574 183.967 611.359 184.742 611.35 185.75C611.434 185.731 611.555 185.694 611.714 185.638C611.882 185.582 612.073 185.521 612.288 185.456C612.512 185.391 612.741 185.335 612.974 185.288C613.207 185.241 613.431 185.218 613.646 185.218C614.663 185.218 615.433 185.451 615.956 185.918C616.479 186.385 616.74 187.108 616.74 188.088C616.74 188.741 616.614 189.297 616.362 189.754C616.11 190.211 615.741 190.557 615.256 190.79C614.78 191.023 614.197 191.14 613.506 191.14ZM613.506 190.146C614.178 190.146 614.691 189.969 615.046 189.614C615.41 189.259 615.592 188.751 615.592 188.088C615.592 187.453 615.41 186.982 615.046 186.674C614.691 186.366 614.197 186.212 613.562 186.212C613.31 186.212 613.044 186.24 612.764 186.296C612.484 186.352 612.218 186.422 611.966 186.506C611.714 186.581 611.504 186.655 611.336 186.73C611.345 187.374 611.42 187.957 611.56 188.48C611.7 188.993 611.929 189.399 612.246 189.698C612.563 189.997 612.983 190.146 613.506 190.146ZM624.36 191.126C624.015 191.126 623.651 191.103 623.268 191.056C622.885 191.009 622.517 190.958 622.162 190.902C621.817 190.837 621.527 190.776 621.294 190.72L621.42 189.824C621.653 189.861 621.933 189.908 622.26 189.964C622.587 190.011 622.923 190.053 623.268 190.09C623.623 190.118 623.949 190.132 624.248 190.132C624.883 190.132 625.382 189.95 625.746 189.586C626.119 189.222 626.306 188.695 626.306 188.004C626.306 187.537 626.227 187.173 626.068 186.912C625.909 186.641 625.685 186.45 625.396 186.338C625.107 186.226 624.771 186.17 624.388 186.17C624.108 186.17 623.828 186.198 623.548 186.254C623.268 186.31 623.011 186.38 622.778 186.464C622.545 186.548 622.353 186.632 622.204 186.716L621.448 186.562L621.7 181.76H627.09V182.768H622.624L622.372 185.722C622.531 185.647 622.727 185.568 622.96 185.484C623.193 185.4 623.445 185.33 623.716 185.274C623.987 185.209 624.253 185.176 624.514 185.176C625.121 185.176 625.643 185.269 626.082 185.456C626.521 185.633 626.861 185.923 627.104 186.324C627.347 186.716 627.468 187.243 627.468 187.906C627.468 188.615 627.342 189.208 627.09 189.684C626.847 190.16 626.493 190.519 626.026 190.762C625.569 191.005 625.013 191.126 624.36 191.126ZM632.25 191.14C631.485 191.14 630.855 190.949 630.36 190.566C629.875 190.183 629.515 189.633 629.282 188.914C629.049 188.195 628.932 187.337 628.932 186.338C628.932 185.498 629.016 184.779 629.184 184.182C629.352 183.585 629.595 183.099 629.912 182.726C630.229 182.343 630.612 182.063 631.06 181.886C631.508 181.709 632.007 181.62 632.558 181.62C632.847 181.62 633.151 181.634 633.468 181.662C633.785 181.69 634.089 181.723 634.378 181.76C634.667 181.797 634.91 181.835 635.106 181.872L634.994 182.768C634.817 182.749 634.588 182.731 634.308 182.712C634.037 182.684 633.748 182.661 633.44 182.642C633.141 182.623 632.847 182.614 632.558 182.614C631.765 182.614 631.158 182.885 630.738 183.426C630.318 183.967 630.103 184.742 630.094 185.75C630.178 185.731 630.299 185.694 630.458 185.638C630.626 185.582 630.817 185.521 631.032 185.456C631.256 185.391 631.485 185.335 631.718 185.288C631.951 185.241 632.175 185.218 632.39 185.218C633.407 185.218 634.177 185.451 634.7 185.918C635.223 186.385 635.484 187.108 635.484 188.088C635.484 188.741 635.358 189.297 635.106 189.754C634.854 190.211 634.485 190.557 634 190.79C633.524 191.023 632.941 191.14 632.25 191.14ZM632.25 190.146C632.922 190.146 633.435 189.969 633.79 189.614C634.154 189.259 634.336 188.751 634.336 188.088C634.336 187.453 634.154 186.982 633.79 186.674C633.435 186.366 632.941 186.212 632.306 186.212C632.054 186.212 631.788 186.24 631.508 186.296C631.228 186.352 630.962 186.422 630.71 186.506C630.458 186.581 630.248 186.655 630.08 186.73C630.089 187.374 630.164 187.957 630.304 188.48C630.444 188.993 630.673 189.399 630.99 189.698C631.307 189.997 631.727 190.146 632.25 190.146ZM643.048 191.14C642.582 191.14 642.138 191.098 641.718 191.014C641.308 190.939 640.939 190.809 640.612 190.622C640.295 190.426 640.043 190.169 639.856 189.852C639.679 189.525 639.59 189.124 639.59 188.648C639.59 188.172 639.656 187.785 639.786 187.486C639.926 187.187 640.113 186.94 640.346 186.744C640.589 186.539 640.864 186.347 641.172 186.17C640.855 186.002 640.589 185.825 640.374 185.638C640.169 185.451 640.01 185.227 639.898 184.966C639.796 184.695 639.744 184.373 639.744 184C639.744 183.468 639.88 183.025 640.15 182.67C640.421 182.315 640.804 182.049 641.298 181.872C641.793 181.695 642.376 181.606 643.048 181.606C643.711 181.606 644.294 181.695 644.798 181.872C645.302 182.049 645.694 182.315 645.974 182.67C646.264 183.025 646.408 183.473 646.408 184.014C646.408 184.406 646.352 184.733 646.24 184.994C646.138 185.255 645.974 185.479 645.75 185.666C645.526 185.843 645.237 186.011 644.882 186.17C645.209 186.319 645.498 186.492 645.75 186.688C646.002 186.884 646.198 187.127 646.338 187.416C646.478 187.696 646.548 188.055 646.548 188.494C646.548 188.998 646.455 189.423 646.268 189.768C646.091 190.104 645.839 190.375 645.512 190.58C645.195 190.776 644.822 190.916 644.392 191C643.972 191.093 643.524 191.14 643.048 191.14ZM643.048 190.118C643.496 190.118 643.893 190.067 644.238 189.964C644.584 189.861 644.854 189.684 645.05 189.432C645.246 189.171 645.344 188.821 645.344 188.382C645.344 188.027 645.274 187.747 645.134 187.542C644.994 187.327 644.803 187.159 644.56 187.038C644.327 186.907 644.056 186.8 643.748 186.716H642.278C641.812 186.847 641.448 187.043 641.186 187.304C640.925 187.565 640.794 187.948 640.794 188.452C640.794 188.863 640.892 189.194 641.088 189.446C641.284 189.689 641.55 189.861 641.886 189.964C642.232 190.067 642.619 190.118 643.048 190.118ZM642.278 185.736H643.748C644.215 185.577 644.574 185.381 644.826 185.148C645.078 184.905 645.204 184.574 645.204 184.154C645.204 183.603 645.013 183.211 644.63 182.978C644.257 182.745 643.734 182.628 643.062 182.628C642.409 182.628 641.891 182.745 641.508 182.978C641.135 183.202 640.948 183.589 640.948 184.14C640.948 184.56 641.06 184.891 641.284 185.134C641.508 185.377 641.84 185.577 642.278 185.736ZM650.448 191.14C650.168 191.14 649.87 191.126 649.552 191.098C649.235 191.07 648.932 191.037 648.642 191C648.353 190.963 648.106 190.925 647.9 190.888L648.012 189.978C648.199 189.997 648.428 190.02 648.698 190.048C648.969 190.076 649.258 190.099 649.566 190.118C649.874 190.137 650.168 190.146 650.448 190.146C651.279 190.146 651.9 189.889 652.31 189.376C652.73 188.853 652.945 188.055 652.954 186.982C652.721 187.066 652.464 187.15 652.184 187.234C651.904 187.318 651.624 187.388 651.344 187.444C651.074 187.491 650.822 187.514 650.588 187.514C649.618 187.514 648.871 187.285 648.348 186.828C647.826 186.371 647.564 185.657 647.564 184.686C647.564 184.051 647.695 183.505 647.956 183.048C648.218 182.591 648.586 182.241 649.062 181.998C649.548 181.746 650.117 181.62 650.77 181.62C651.554 181.62 652.189 181.816 652.674 182.208C653.169 182.591 653.533 183.141 653.766 183.86C654 184.579 654.116 185.428 654.116 186.408C654.116 187.304 654.032 188.055 653.864 188.662C653.696 189.269 653.454 189.754 653.136 190.118C652.828 190.482 652.446 190.743 651.988 190.902C651.54 191.061 651.027 191.14 650.448 191.14ZM650.686 186.52C650.92 186.52 651.176 186.492 651.456 186.436C651.736 186.38 652.012 186.315 652.282 186.24C652.553 186.156 652.782 186.081 652.968 186.016C652.959 185.353 652.88 184.77 652.73 184.266C652.59 183.753 652.362 183.351 652.044 183.062C651.727 182.763 651.302 182.614 650.77 182.614C650.136 182.614 649.632 182.801 649.258 183.174C648.894 183.547 648.712 184.051 648.712 184.686C648.712 185.321 648.88 185.787 649.216 186.086C649.552 186.375 650.042 186.52 650.686 186.52ZM659.836 191V189.208H655.384V188.34L658.002 181.76H659.234L656.56 188.214H659.836V185.358H660.956V188.214H662.118V189.208H660.956V191H659.836ZM666.7 191V190.048L669.36 187.262C669.743 186.861 670.074 186.501 670.354 186.184C670.634 185.857 670.849 185.54 670.998 185.232C671.148 184.915 671.222 184.579 671.222 184.224C671.222 183.617 671.054 183.202 670.718 182.978C670.392 182.745 669.897 182.628 669.234 182.628C668.992 182.628 668.721 182.647 668.422 182.684C668.124 182.712 667.834 182.749 667.554 182.796C667.284 182.833 667.05 182.875 666.854 182.922L666.77 181.998C666.966 181.942 667.209 181.886 667.498 181.83C667.788 181.774 668.1 181.727 668.436 181.69C668.782 181.643 669.118 181.62 669.444 181.62C670.424 181.62 671.157 181.816 671.642 182.208C672.137 182.6 672.384 183.23 672.384 184.098C672.384 184.555 672.31 184.966 672.16 185.33C672.02 185.694 671.806 186.053 671.516 186.408C671.236 186.753 670.877 187.141 670.438 187.57L668.016 190.02H672.608V191H666.7ZM678.58 191V189.208H674.128V188.34L676.746 181.76H677.978L675.304 188.214H678.58V185.358H679.7V188.214H680.862V189.208H679.7V191H678.58ZM685.294 191.14C684.94 191.14 684.571 191.117 684.188 191.07C683.806 191.033 683.446 190.986 683.11 190.93C682.774 190.874 682.494 190.818 682.27 190.762L682.368 189.852C682.583 189.889 682.849 189.931 683.166 189.978C683.484 190.025 683.82 190.067 684.174 190.104C684.529 190.132 684.865 190.146 685.182 190.146C685.854 190.146 686.349 190.001 686.666 189.712C686.993 189.413 687.156 188.975 687.156 188.396C687.156 187.976 687.072 187.645 686.904 187.402C686.736 187.159 686.508 186.982 686.218 186.87C685.938 186.758 685.626 186.697 685.28 186.688H683.418V185.722H685.28C685.514 185.722 685.756 185.657 686.008 185.526C686.27 185.395 686.489 185.209 686.666 184.966C686.844 184.714 686.932 184.415 686.932 184.07C686.932 183.547 686.788 183.174 686.498 182.95C686.218 182.717 685.742 182.6 685.07 182.6C684.762 182.6 684.445 182.619 684.118 182.656C683.801 182.684 683.498 182.721 683.208 182.768C682.928 182.805 682.695 182.847 682.508 182.894L682.41 181.998C682.597 181.942 682.835 181.886 683.124 181.83C683.423 181.765 683.745 181.713 684.09 181.676C684.436 181.629 684.776 181.606 685.112 181.606C685.85 181.606 686.433 181.695 686.862 181.872C687.301 182.04 687.614 182.301 687.8 182.656C687.996 183.011 688.094 183.463 688.094 184.014C688.094 184.369 688.038 184.672 687.926 184.924C687.814 185.167 687.679 185.372 687.52 185.54C687.362 185.699 687.208 185.825 687.058 185.918C686.909 186.011 686.797 186.081 686.722 186.128C687.04 186.24 687.315 186.375 687.548 186.534C687.791 186.683 687.978 186.903 688.108 187.192C688.248 187.472 688.318 187.859 688.318 188.354C688.318 188.979 688.211 189.497 687.996 189.908C687.791 190.319 687.464 190.627 687.016 190.832C686.568 191.037 685.994 191.14 685.294 191.14ZM692.512 191.14L691.462 190.818L694.92 183.146V182.768H690.314V181.76H696.068V183.216L692.512 191.14Z" fill="white"/>
<path d="M734.008 191V184H735.086V191H734.008ZM734.008 182.46V181.2H735.086V182.46H734.008ZM737.098 191V184H738.176V184.49C738.335 184.397 738.531 184.303 738.764 184.21C739.007 184.117 739.263 184.037 739.534 183.972C739.805 183.897 740.066 183.86 740.318 183.86C740.803 183.86 741.2 183.925 741.508 184.056C741.816 184.177 742.054 184.378 742.222 184.658C742.399 184.929 742.521 185.283 742.586 185.722C742.661 186.151 742.698 186.674 742.698 187.29V191H741.606V187.332C741.606 186.725 741.569 186.24 741.494 185.876C741.429 185.512 741.289 185.251 741.074 185.092C740.869 184.924 740.551 184.84 740.122 184.84C739.889 184.84 739.646 184.868 739.394 184.924C739.151 184.971 738.923 185.036 738.708 185.12C738.493 185.195 738.316 185.269 738.176 185.344V191H737.098ZM744.925 191V184.938H744.043V184H744.925V183.384C744.925 182.712 744.986 182.189 745.107 181.816C745.228 181.443 745.429 181.186 745.709 181.046C745.989 180.897 746.358 180.822 746.815 180.822C746.927 180.822 747.081 180.827 747.277 180.836C747.473 180.845 747.664 180.859 747.851 180.878C748.038 180.887 748.168 180.901 748.243 180.92L748.229 181.83C748.061 181.821 747.856 181.816 747.613 181.816C747.38 181.807 747.188 181.802 747.039 181.802C746.778 181.802 746.572 181.849 746.423 181.942C746.274 182.026 746.166 182.185 746.101 182.418C746.045 182.651 746.017 182.978 746.017 183.398V184H748.033V184.938H746.017V191H744.925ZM751.844 191.14C751.06 191.14 750.449 191.005 750.01 190.734C749.581 190.463 749.278 190.053 749.1 189.502C748.932 188.951 748.848 188.256 748.848 187.416C748.848 186.613 748.942 185.951 749.128 185.428C749.324 184.905 749.642 184.513 750.08 184.252C750.519 183.991 751.107 183.86 751.844 183.86C752.591 183.86 753.184 183.991 753.622 184.252C754.061 184.513 754.374 184.905 754.56 185.428C754.756 185.951 754.854 186.613 754.854 187.416C754.854 188.256 754.766 188.951 754.588 189.502C754.42 190.053 754.117 190.463 753.678 190.734C753.249 191.005 752.638 191.14 751.844 191.14ZM751.844 190.202C752.386 190.202 752.792 190.109 753.062 189.922C753.333 189.726 753.51 189.423 753.594 189.012C753.688 188.601 753.734 188.069 753.734 187.416C753.734 186.772 753.678 186.259 753.566 185.876C753.454 185.493 753.263 185.218 752.992 185.05C752.722 184.882 752.339 184.798 751.844 184.798C751.359 184.798 750.976 184.882 750.696 185.05C750.426 185.218 750.234 185.493 750.122 185.876C750.01 186.259 749.954 186.772 749.954 187.416C749.954 188.069 749.996 188.601 750.08 189.012C750.174 189.423 750.356 189.726 750.626 189.922C750.897 190.109 751.303 190.202 751.844 190.202ZM762.615 193.842C761.579 193.842 760.664 193.739 759.871 193.534C759.087 193.329 758.424 192.979 757.883 192.484C757.351 191.999 756.949 191.336 756.679 190.496C756.408 189.656 756.273 188.606 756.273 187.346C756.273 186.198 756.413 185.213 756.693 184.392C756.973 183.571 757.383 182.903 757.925 182.39C758.475 181.867 759.143 181.485 759.927 181.242C760.711 180.999 761.607 180.878 762.615 180.878C764.015 180.878 765.158 181.093 766.045 181.522C766.931 181.951 767.58 182.6 767.991 183.468C768.411 184.336 768.621 185.423 768.621 186.73V186.912C768.621 187.621 768.583 188.223 768.509 188.718C768.434 189.213 768.327 189.614 768.187 189.922C768.047 190.23 767.874 190.468 767.669 190.636C767.473 190.804 767.244 190.921 766.983 190.986C766.731 191.051 766.455 191.084 766.157 191.084C765.821 191.084 765.536 191.037 765.303 190.944C765.069 190.851 764.887 190.739 764.757 190.608C764.626 190.477 764.542 190.356 764.505 190.244C764.318 190.356 764.085 190.477 763.805 190.608C763.525 190.739 763.235 190.851 762.937 190.944C762.638 191.028 762.358 191.07 762.097 191.07C761.854 191.07 761.611 191.047 761.369 191C761.126 190.944 760.897 190.846 760.683 190.706C760.477 190.566 760.295 190.365 760.137 190.104C759.978 189.843 759.852 189.507 759.759 189.096C759.665 188.676 759.619 188.163 759.619 187.556C759.619 186.772 759.703 186.109 759.871 185.568C760.039 185.027 760.328 184.621 760.739 184.35C761.149 184.07 761.719 183.93 762.447 183.93C762.689 183.93 762.965 183.972 763.273 184.056C763.59 184.131 763.847 184.21 764.043 184.294V184.07H765.135V186.744C765.135 187.519 765.144 188.135 765.163 188.592C765.181 189.049 765.223 189.39 765.289 189.614C765.354 189.838 765.457 189.987 765.597 190.062C765.746 190.127 765.942 190.16 766.185 190.16C766.39 190.16 766.572 190.127 766.731 190.062C766.899 189.997 767.039 189.861 767.151 189.656C767.272 189.441 767.361 189.115 767.417 188.676C767.482 188.237 767.515 187.649 767.515 186.912V186.716C767.515 185.867 767.421 185.139 767.235 184.532C767.057 183.916 766.773 183.412 766.381 183.02C765.989 182.619 765.48 182.325 764.855 182.138C764.239 181.942 763.492 181.844 762.615 181.844C761.737 181.844 760.967 181.951 760.305 182.166C759.651 182.371 759.105 182.698 758.667 183.146C758.228 183.594 757.901 184.163 757.687 184.854C757.472 185.545 757.365 186.375 757.365 187.346C757.365 188.373 757.467 189.241 757.673 189.95C757.878 190.65 758.191 191.215 758.611 191.644C759.04 192.083 759.586 192.395 760.249 192.582C760.911 192.778 761.7 192.876 762.615 192.876C762.764 192.876 762.955 192.867 763.189 192.848C763.431 192.839 763.679 192.825 763.931 192.806C764.192 192.787 764.421 192.769 764.617 192.75L764.659 193.716C764.472 193.735 764.253 193.753 764.001 193.772C763.749 193.791 763.497 193.805 763.245 193.814C763.002 193.833 762.792 193.842 762.615 193.842ZM762.153 190.104C762.349 190.104 762.568 190.071 762.811 190.006C763.063 189.941 763.305 189.861 763.539 189.768C763.781 189.665 763.991 189.567 764.169 189.474C764.15 189.278 764.127 189.049 764.099 188.788C764.08 188.527 764.066 188.251 764.057 187.962C764.047 187.673 764.043 187.388 764.043 187.108V185.176C763.865 185.111 763.637 185.05 763.357 184.994C763.086 184.929 762.843 184.896 762.629 184.896C762.106 184.896 761.705 184.999 761.425 185.204C761.154 185.4 760.967 185.699 760.865 186.1C760.762 186.492 760.711 186.982 760.711 187.57C760.711 188.102 760.753 188.536 760.837 188.872C760.921 189.199 761.033 189.455 761.173 189.642C761.313 189.819 761.467 189.941 761.635 190.006C761.803 190.071 761.975 190.104 762.153 190.104ZM772.815 191.14C772.077 191.14 771.499 191.019 771.079 190.776C770.659 190.524 770.36 190.123 770.183 189.572C770.015 189.021 769.931 188.293 769.931 187.388C769.931 186.539 770.024 185.857 770.211 185.344C770.407 184.821 770.719 184.443 771.149 184.21C771.578 183.977 772.138 183.86 772.829 183.86C772.987 183.86 773.179 183.874 773.403 183.902C773.636 183.921 773.874 183.949 774.117 183.986C774.359 184.014 774.569 184.042 774.747 184.07L774.705 184.966C774.546 184.947 774.364 184.929 774.159 184.91C773.953 184.891 773.753 184.877 773.557 184.868C773.361 184.849 773.197 184.84 773.067 184.84C772.535 184.84 772.119 184.924 771.821 185.092C771.531 185.26 771.326 185.531 771.205 185.904C771.093 186.268 771.037 186.763 771.037 187.388C771.037 188.069 771.088 188.615 771.191 189.026C771.293 189.427 771.489 189.717 771.779 189.894C772.068 190.071 772.497 190.16 773.067 190.16C773.197 190.16 773.361 190.155 773.557 190.146C773.762 190.127 773.967 190.109 774.173 190.09C774.387 190.071 774.574 190.057 774.733 190.048L774.761 190.944C774.574 190.972 774.359 191 774.117 191.028C773.874 191.056 773.636 191.079 773.403 191.098C773.169 191.126 772.973 191.14 772.815 191.14ZM778.956 191.14C778.172 191.14 777.56 191.005 777.122 190.734C776.692 190.463 776.389 190.053 776.212 189.502C776.044 188.951 775.96 188.256 775.96 187.416C775.96 186.613 776.053 185.951 776.24 185.428C776.436 184.905 776.753 184.513 777.192 184.252C777.63 183.991 778.218 183.86 778.956 183.86C779.702 183.86 780.295 183.991 780.734 184.252C781.172 184.513 781.485 184.905 781.672 185.428C781.868 185.951 781.966 186.613 781.966 187.416C781.966 188.256 781.877 188.951 781.7 189.502C781.532 190.053 781.228 190.463 780.79 190.734C780.36 191.005 779.749 191.14 778.956 191.14ZM778.956 190.202C779.497 190.202 779.903 190.109 780.174 189.922C780.444 189.726 780.622 189.423 780.706 189.012C780.799 188.601 780.846 188.069 780.846 187.416C780.846 186.772 780.79 186.259 780.678 185.876C780.566 185.493 780.374 185.218 780.104 185.05C779.833 184.882 779.45 184.798 778.956 184.798C778.47 184.798 778.088 184.882 777.808 185.05C777.537 185.218 777.346 185.493 777.234 185.876C777.122 186.259 777.066 186.772 777.066 187.416C777.066 188.069 777.108 188.601 777.192 189.012C777.285 189.423 777.467 189.726 777.738 189.922C778.008 190.109 778.414 190.202 778.956 190.202ZM783.678 191V184H784.756V184.49C784.915 184.397 785.111 184.303 785.344 184.21C785.587 184.117 785.843 184.037 786.114 183.972C786.385 183.897 786.646 183.86 786.898 183.86C787.383 183.86 787.78 183.925 788.088 184.056C788.396 184.177 788.634 184.378 788.802 184.658C788.979 184.929 789.101 185.283 789.166 185.722C789.241 186.151 789.278 186.674 789.278 187.29V191H788.186V187.332C788.186 186.725 788.149 186.24 788.074 185.876C788.009 185.512 787.869 185.251 787.654 185.092C787.449 184.924 787.131 184.84 786.702 184.84C786.469 184.84 786.226 184.868 785.974 184.924C785.731 184.971 785.503 185.036 785.288 185.12C785.073 185.195 784.896 185.269 784.756 185.344V191H783.678ZM791.211 191V184H792.289V184.49C792.448 184.397 792.644 184.303 792.877 184.21C793.12 184.117 793.376 184.037 793.647 183.972C793.918 183.897 794.179 183.86 794.431 183.86C794.916 183.86 795.313 183.925 795.621 184.056C795.929 184.177 796.167 184.378 796.335 184.658C796.512 184.929 796.634 185.283 796.699 185.722C796.774 186.151 796.811 186.674 796.811 187.29V191H795.719V187.332C795.719 186.725 795.682 186.24 795.607 185.876C795.542 185.512 795.402 185.251 795.187 185.092C794.982 184.924 794.664 184.84 794.235 184.84C794.002 184.84 793.759 184.868 793.507 184.924C793.264 184.971 793.036 185.036 792.821 185.12C792.606 185.195 792.429 185.269 792.289 185.344V191H791.211ZM801.222 191.14C800.522 191.14 799.967 191.005 799.556 190.734C799.155 190.463 798.866 190.062 798.688 189.53C798.511 188.998 798.422 188.335 798.422 187.542C798.422 186.655 798.544 185.946 798.786 185.414C799.029 184.873 799.37 184.481 799.808 184.238C800.247 183.986 800.765 183.86 801.362 183.86C802.296 183.86 803 184.121 803.476 184.644C803.952 185.157 804.19 185.988 804.19 187.136L804.134 187.962H799.528C799.538 188.69 799.673 189.241 799.934 189.614C800.196 189.987 800.667 190.174 801.348 190.174C801.61 190.174 801.894 190.169 802.202 190.16C802.52 190.141 802.832 190.123 803.14 190.104C803.448 190.085 803.71 190.067 803.924 190.048L803.952 190.902C803.728 190.939 803.453 190.977 803.126 191.014C802.809 191.051 802.482 191.079 802.146 191.098C801.81 191.126 801.502 191.14 801.222 191.14ZM799.528 187.08H803.098C803.098 186.221 802.958 185.624 802.678 185.288C802.408 184.943 801.969 184.77 801.362 184.77C800.97 184.77 800.639 184.849 800.368 185.008C800.098 185.157 799.888 185.4 799.738 185.736C799.598 186.072 799.528 186.52 799.528 187.08ZM808.403 191.14C807.665 191.14 807.087 191.019 806.667 190.776C806.247 190.524 805.948 190.123 805.771 189.572C805.603 189.021 805.519 188.293 805.519 187.388C805.519 186.539 805.612 185.857 805.799 185.344C805.995 184.821 806.307 184.443 806.737 184.21C807.166 183.977 807.726 183.86 808.417 183.86C808.575 183.86 808.767 183.874 808.991 183.902C809.224 183.921 809.462 183.949 809.705 183.986C809.947 184.014 810.157 184.042 810.335 184.07L810.293 184.966C810.134 184.947 809.952 184.929 809.747 184.91C809.541 184.891 809.341 184.877 809.145 184.868C808.949 184.849 808.785 184.84 808.655 184.84C808.123 184.84 807.707 184.924 807.409 185.092C807.119 185.26 806.914 185.531 806.793 185.904C806.681 186.268 806.625 186.763 806.625 187.388C806.625 188.069 806.676 188.615 806.779 189.026C806.881 189.427 807.077 189.717 807.367 189.894C807.656 190.071 808.085 190.16 808.655 190.16C808.785 190.16 808.949 190.155 809.145 190.146C809.35 190.127 809.555 190.109 809.761 190.09C809.975 190.071 810.162 190.057 810.321 190.048L810.349 190.944C810.162 190.972 809.947 191 809.705 191.028C809.462 191.056 809.224 191.079 808.991 191.098C808.757 191.126 808.561 191.14 808.403 191.14ZM814.206 191.154C813.721 191.154 813.334 191.079 813.044 190.93C812.764 190.781 812.564 190.524 812.442 190.16C812.321 189.787 812.26 189.264 812.26 188.592V184.938H811.266V184H812.26V181.858H813.338V184H815.536V184.938H813.338V188.27C813.338 188.765 813.357 189.152 813.394 189.432C813.441 189.703 813.534 189.894 813.674 190.006C813.814 190.118 814.034 190.174 814.332 190.174C814.426 190.174 814.547 190.169 814.696 190.16C814.846 190.151 814.995 190.141 815.144 190.132C815.303 190.113 815.443 190.099 815.564 190.09L815.634 191C815.504 191.019 815.35 191.037 815.172 191.056C814.995 191.084 814.818 191.107 814.64 191.126C814.472 191.145 814.328 191.154 814.206 191.154ZM816.819 191V184H817.897V191H816.819ZM816.819 182.46V181.2H817.897V182.46H816.819ZM819.908 191V184H820.986V184.49C821.145 184.397 821.341 184.303 821.574 184.21C821.817 184.117 822.074 184.037 822.344 183.972C822.615 183.897 822.876 183.86 823.128 183.86C823.614 183.86 824.01 183.925 824.318 184.056C824.626 184.177 824.864 184.378 825.032 184.658C825.21 184.929 825.331 185.283 825.396 185.722C825.471 186.151 825.508 186.674 825.508 187.29V191H824.416V187.332C824.416 186.725 824.379 186.24 824.304 185.876C824.239 185.512 824.099 185.251 823.884 185.092C823.679 184.924 823.362 184.84 822.932 184.84C822.699 184.84 822.456 184.868 822.204 184.924C821.962 184.971 821.733 185.036 821.518 185.12C821.304 185.195 821.126 185.269 820.986 185.344V191H819.908ZM827.372 191V189.362H828.562V191H827.372ZM833.08 191.14C832.343 191.14 831.764 191.019 831.344 190.776C830.924 190.524 830.626 190.123 830.448 189.572C830.28 189.021 830.196 188.293 830.196 187.388C830.196 186.539 830.29 185.857 830.476 185.344C830.672 184.821 830.985 184.443 831.414 184.21C831.844 183.977 832.404 183.86 833.094 183.86C833.253 183.86 833.444 183.874 833.668 183.902C833.902 183.921 834.14 183.949 834.382 183.986C834.625 184.014 834.835 184.042 835.012 184.07L834.97 184.966C834.812 184.947 834.63 184.929 834.424 184.91C834.219 184.891 834.018 184.877 833.822 184.868C833.626 184.849 833.463 184.84 833.332 184.84C832.8 184.84 832.385 184.924 832.086 185.092C831.797 185.26 831.592 185.531 831.47 185.904C831.358 186.268 831.302 186.763 831.302 187.388C831.302 188.069 831.354 188.615 831.456 189.026C831.559 189.427 831.755 189.717 832.044 189.894C832.334 190.071 832.763 190.16 833.332 190.16C833.463 190.16 833.626 190.155 833.822 190.146C834.028 190.127 834.233 190.109 834.438 190.09C834.653 190.071 834.84 190.057 834.998 190.048L835.026 190.944C834.84 190.972 834.625 191 834.382 191.028C834.14 191.056 833.902 191.079 833.668 191.098C833.435 191.126 833.239 191.14 833.08 191.14ZM839.221 191.14C838.437 191.14 837.826 191.005 837.387 190.734C836.958 190.463 836.655 190.053 836.477 189.502C836.309 188.951 836.225 188.256 836.225 187.416C836.225 186.613 836.319 185.951 836.505 185.428C836.701 184.905 837.019 184.513 837.457 184.252C837.896 183.991 838.484 183.86 839.221 183.86C839.968 183.86 840.561 183.991 840.999 184.252C841.438 184.513 841.751 184.905 841.937 185.428C842.133 185.951 842.231 186.613 842.231 187.416C842.231 188.256 842.143 188.951 841.965 189.502C841.797 190.053 841.494 190.463 841.055 190.734C840.626 191.005 840.015 191.14 839.221 191.14ZM839.221 190.202C839.763 190.202 840.169 190.109 840.439 189.922C840.71 189.726 840.887 189.423 840.971 189.012C841.065 188.601 841.111 188.069 841.111 187.416C841.111 186.772 841.055 186.259 840.943 185.876C840.831 185.493 840.64 185.218 840.369 185.05C840.099 184.882 839.716 184.798 839.221 184.798C838.736 184.798 838.353 184.882 838.073 185.05C837.803 185.218 837.611 185.493 837.499 185.876C837.387 186.259 837.331 186.772 837.331 187.416C837.331 188.069 837.373 188.601 837.457 189.012C837.551 189.423 837.733 189.726 838.003 189.922C838.274 190.109 838.68 190.202 839.221 190.202ZM843.944 191V184H845.022V184.49C845.171 184.397 845.358 184.303 845.582 184.21C845.806 184.117 846.044 184.037 846.296 183.972C846.557 183.897 846.804 183.86 847.038 183.86C847.504 183.86 847.878 183.916 848.158 184.028C848.447 184.14 848.68 184.322 848.858 184.574C849.044 184.471 849.273 184.364 849.544 184.252C849.814 184.14 850.104 184.047 850.412 183.972C850.729 183.897 851.037 183.86 851.336 183.86C851.812 183.86 852.204 183.921 852.512 184.042C852.82 184.163 853.058 184.359 853.226 184.63C853.403 184.901 853.524 185.255 853.59 185.694C853.664 186.123 853.702 186.655 853.702 187.29V191H852.624V187.332C852.624 186.725 852.586 186.24 852.512 185.876C852.446 185.512 852.311 185.251 852.106 185.092C851.9 184.924 851.588 184.84 851.168 184.84C850.925 184.84 850.678 184.868 850.426 184.924C850.183 184.971 849.954 185.036 849.74 185.12C849.534 185.195 849.366 185.269 849.236 185.344C849.301 185.587 849.343 185.89 849.362 186.254C849.39 186.609 849.404 186.977 849.404 187.36V191H848.326V187.388C848.326 186.753 848.293 186.254 848.228 185.89C848.162 185.517 848.022 185.251 847.808 185.092C847.602 184.924 847.29 184.84 846.87 184.84C846.636 184.84 846.398 184.868 846.156 184.924C845.922 184.971 845.708 185.036 845.512 185.12C845.316 185.195 845.152 185.269 845.022 185.344V191H843.944Z" fill="white"/>
<defs>
<clipPath id="clip0_2_1366">
<rect width="16" height="18" fill="white" transform="translate(771 272)"/>
</clipPath>
<clipPath id="clip1_2_1366">
<rect width="16" height="15" fill="white" transform="translate(732 273)"/>
</clipPath>
<clipPath id="clip2_2_1366">
<rect width="18" height="14" fill="white" transform="translate(691 274)"/>
</clipPath>
<clipPath id="clip3_2_1366">
<rect width="7" height="14" fill="white" transform="translate(657 274)"/>
</clipPath>
<clipPath id="clip4_2_1366">
<rect width="159" height="29" fill="white" transform="translate(641 48)"/>
</clipPath>
</defs>
</svg>